<?xml version="1.0" encoding="utf-8"?>
<!-- Generator: Adobe Illustrator 26.0.1, SVG Export Plug-In . SVG Version: 6.00 Build 0)  -->
<svg version="1.1" id="ElectricalCircuit_x5F_KeyValue"
	 xmlns="http://www.w3.org/2000/svg" xmlns:xlink="http://www.w3.org/1999/xlink" x="0px" y="0px" viewBox="0 0 500 540"
	 style="enable-background:new 0 0 500 540;" xml:space="preserve">
<style type="text/css">
	.st0{fill:none;stroke:#A0A0A0;stroke-width:4;stroke-miterlimit:10;}
	.st1{fill:none;stroke:#A0A0A0;stroke-width:2;stroke-miterlimit:10;}
	.st2{fill:#2F90EC;}
	.st3{opacity:0.4;}
	.st4{fill:#FFFFFF;}
	.st5{fill:none;stroke:#FFFFFF;stroke-width:2;stroke-miterlimit:10;}
	.st6{opacity:0.2;}
	.st7{fill:#A0A0A0;}
	.st8{fill:#1D1D1D;}
	.st9{font-family:'Roboto-Medium';}
	.st10{font-size:26px;}
	.st11{font-family:'Roboto-Bold';}
	.st12{font-size:90px;}
	.st13{opacity:0.3;fill:url(#shine_00000049205364449872110390000005118951946725311643_);}
</style>
<g id="Beaker_lines_00000182528351813742711740000006029843717016772252_">
	<path id="beaker_outline_00000050622810114239318660000002197580814372335523_" class="st0" d="M373,158H112c-2.76,0-5,2.24-5,5
		s2.24,5,5,5v319c0,4.42,3.58,8,8,8h245c4.42,0,8-3.58,8-8V168c2.76,0,5-2.24,5-5S375.76,158,373,158z"/>
	<line class="st1" x1="112" y1="167" x2="373" y2="167"/>
</g>
<path id="liquid" class="st2" d="M355,199c-3.97,0-7.57-1.55-10.25-4.07c-2.68,2.52-6.28,4.07-10.25,4.07s-7.57-1.55-10.25-4.07
	c-2.68,2.52-6.28,4.07-10.25,4.07s-7.57-1.55-10.25-4.07c-2.68,2.52-6.28,4.07-10.25,4.07s-7.57-1.55-10.25-4.07
	c-2.68,2.52-6.28,4.07-10.25,4.07s-7.57-1.55-10.25-4.07c-2.68,2.52-6.28,4.07-10.25,4.07s-7.57-1.55-10.25-4.07
	c-2.68,2.52-6.28,4.07-10.25,4.07s-7.57-1.55-10.25-4.07c-2.68,2.52-6.28,4.07-10.25,4.07s-7.57-1.55-10.25-4.07
	c-2.68,2.52-6.28,4.07-10.25,4.07s-7.57-1.55-10.25-4.07c-2.68,2.52-6.28,4.07-10.25,4.07s-7.57-1.55-10.25-4.07
	c-2.68,2.52-6.28,4.07-10.25,4.07s-7.57-1.55-10.25-4.07c-2.68,2.52-6.28,4.07-10.25,4.07c-3.61,0-6.91-1.27-9.5-3.39V485
	c0,1.1,0.9,2,2,2h241c1.1,0,2-0.9,2-2V195.16C362.34,197.54,358.85,199,355,199z"/>
<g id="bubbles" class="st3">
	<circle class="st4" cx="138.04" cy="418.8" r="4"/>
	<circle class="st4" cx="264" cy="281.4" r="4"/>
	<circle class="st5" cx="174.19" cy="360.8" r="5.5"/>
	<circle class="st5" cx="308" cy="437.6" r="5.5"/>
	<circle class="st5" cx="317.04" cy="236.7" r="5.5"/>
	<circle class="st5" cx="145.04" cy="322.8" r="8"/>
	<circle class="st5" cx="286" cy="415.8" r="8"/>
	<circle class="st5" cx="168.69" cy="448.6" r="8"/>
	<circle class="st4" cx="329.04" cy="332.8" r="4"/>
	<circle class="st4" cx="160.04" cy="254.3" r="4"/>
	<circle class="st4" cx="271.36" cy="227" r="4"/>
	<circle class="st4" cx="348.36" cy="292" r="4"/>
	<circle class="st5" cx="283.36" cy="331.8" r="5.5"/>
	<circle class="st5" cx="241.86" cy="243.3" r="5.5"/>
	<circle class="st5" cx="196.04" cy="265.4" r="8"/>
	<circle class="st4" cx="257" cy="380.8" r="4"/>
	<circle class="st4" cx="347" cy="438.9" r="4"/>
	<circle class="st4" cx="283.36" cy="467.01" r="4"/>
	<circle class="st4" cx="179.69" cy="469.11" r="4"/>
	<circle class="st5" cx="316" cy="364" r="10"/>
	<circle class="st5" cx="260.56" cy="455.75" r="10"/>
	<circle class="st5" cx="203" cy="421" r="10"/>
	<circle class="st5" cx="233.96" cy="338.6" r="10"/>
	<circle class="st5" cx="201" cy="222" r="10"/>
	<circle class="st5" cx="311" cy="271" r="10"/>
</g>
<g id="circuit">
	<g class="st6">
		<path d="M138,245.46v32.37c0,2.76,2.08,5.02,4.74,5.16c0.09,0,0.18,0.01,0.27,0.01c1.29,0,2.5-0.48,3.44-1.37
			c0.99-0.94,1.56-2.26,1.56-3.63v-32.54c1.19-0.69,2-1.99,2-3.46v-30h-5v-13.88c-1.45-0.52-2.79-1.24-4-2.15V212h-5v30
			C136,243.48,136.81,244.77,138,245.46z M144,278c0,0.37-0.2,0.61-0.31,0.73c-0.12,0.11-0.38,0.29-0.75,0.27
			c-0.51-0.03-0.94-0.56-0.94-1.17V244h2V278z M140,216h6v26h-6V216z"/>
		<path d="M338.56,281.63c0.94,0.89,2.15,1.37,3.44,1.37c0.09,0,0.18,0,0.27-0.01c2.66-0.14,4.73-2.41,4.73-5.16v-32.37
			c1.19-0.69,2-1.99,2-3.46v-30h-5v-16.43c-1.2,0.98-2.54,1.79-4,2.37V212h-5v30c0,1.48,0.81,2.77,2,3.46V278
			C337,279.36,337.57,280.69,338.56,281.63z M343,277.83c0,0.61-0.43,1.14-0.94,1.17c-0.41,0.02-0.63-0.16-0.75-0.27
			c-0.12-0.11-0.31-0.35-0.31-0.73v-34h2V277.83z M339,216h6v26h-6V216z"/>
	</g>
	<path class="st7" d="M145,198.12V44h64v14h-1c-1.1,0-2,0.9-2,2v4h-17c-2.21,0-4,1.79-4,4v8h5v49h-1c-2.21,0-4,1.79-4,4v8h115v-8
		c0-2.21-1.79-4-4-4h-1V76h5v-8c0-2.21-1.79-4-4-4h-17v-4c0-1.1-0.9-2-2-2h-1V44h64v153.95c1.46-0.58,2.8-1.39,4-2.37V42
		c0-1.1-0.9-2-2-2h-68c-1.1,0-2,0.9-2,2v16h-1c-1.1,0-2,0.9-2,2v4h-53v-4c0-1.1-0.9-2-2-2h-1V42c0-1.1-0.9-2-2-2h-68
		c-1.1,0-2,0.9-2,2v153.97C142.21,196.88,143.55,197.61,145,198.12z M296,129v4H189v-4H296z M194,127V74h97v53H194z M296,68v4H189
		v-4H296z"/>
	<path class="st7" d="M206,88h10c0.55,0,1-0.45,1-1s-0.45-1-1-1h-10c-0.55,0-1,0.45-1,1S205.45,88,206,88z"/>
	<path class="st7" d="M269,88h4v4c0,0.55,0.45,1,1,1s1-0.45,1-1v-4h4c0.55,0,1-0.45,1-1s-0.45-1-1-1h-4v-4c0-0.55-0.45-1-1-1
		s-1,0.45-1,1v4h-4c-0.55,0-1,0.45-1,1S268.45,88,269,88z"/>
</g>
<g>
	<text transform="matrix(1 0 0 1 195.002 375.9539)"><tspan x="0" y="0" class="st8 st9 st10">Specific</tspan><tspan x="-49.41" y="31.2" class="st8 st9 st10">Conductance 6ft</tspan></text>
</g>
<g id="_x7B__x7B_ta:middle_x7D__x7D_">
	<text transform="matrix(1 0 0 1 95.1133 342.4998)" class="st8 st11 st12">{{#0|c}}</text>
</g>
<linearGradient id="shine_00000088836533839921342980000013622622608682539955_" gradientUnits="userSpaceOnUse" x1="120" y1="340.9654" x2="242" y2="340.9654">
	<stop  offset="4.910593e-04" style="stop-color:#FFFFFF"/>
	<stop  offset="1" style="stop-color:#FFFFFF;stop-opacity:0.3"/>
</linearGradient>
<path id="shine" style="opacity:0.3;fill:url(#shine_00000088836533839921342980000013622622608682539955_);" d="M232,199
	c-3.97,0-7.57-1.55-10.25-4.07c-2.68,2.52-6.28,4.07-10.25,4.07s-7.57-1.55-10.25-4.07c-2.68,2.52-6.28,4.07-10.25,4.07
	s-7.57-1.55-10.25-4.07c-2.68,2.52-6.28,4.07-10.25,4.07s-7.57-1.55-10.25-4.07c-2.68,2.52-6.28,4.07-10.25,4.07
	s-7.57-1.55-10.25-4.07c-2.68,2.52-6.28,4.07-10.25,4.07c-3.61,0-6.91-1.27-9.5-3.39V485c0,1.1,0.9,2,2,2h120V195.14
	C239.34,197.53,235.85,199,232,199z"/>
</svg>
