<?xml version="1.0" encoding="utf-8"?>
<!-- Generator: Adobe Illustrator 26.0.1, SVG Export Plug-In . SVG Version: 6.00 Build 0)  -->
<svg version="1.1" id="Thermometer_x5F_Gauge" xmlns="http://www.w3.org/2000/svg" xmlns:xlink="http://www.w3.org/1999/xlink"
	 x="0px" y="0px" viewBox="0 0 450 500" style="enable-background:new 0 0 450 500;" xml:space="preserve">
<style type="text/css">
	.st0{filter:url(#Adobe_OpacityMaskFilter);}
	
		.st1{mask:url(#outline_00000099661815173532455030000009240573333739794341_);fill:none;stroke:#A0A0A0;stroke-width:4;stroke-miterlimit:10;}
	.st2{fill:#2F90EC;}
	.st3{opacity:0.3;fill:url(#mercuryShine_00000080917707331227971520000009194970637714618775_);}
	.st4{filter:url(#Adobe_OpacityMaskFilter_00000128448228998109379410000014775162204742644612_);}
	.st5{fill:#FFFFFF;}
	.st6{mask:url(#bar_00000116944963226738926570000003387179338601305734_);}
	.st7{opacity:0.3;fill:url(#barShine_00000113323446300526289440000017046084709368671645_);}
	.st8{fill:none;}
	.st9{fill:#1D1D1D;}
	.st10{font-family:'Roboto-Bold';}
	.st11{font-size:60px;}
	.st12{opacity:0.2;}
	.st13{fill:none;stroke:#000000;stroke-width:2;stroke-miterlimit:10;stroke-dasharray:3,2;}
	.st14{fill:none;stroke:#A0A0A0;stroke-width:2;stroke-linecap:round;stroke-miterlimit:10;}
	.st15{fill:#696969;}
	.st16{font-family:'Roboto-Regular';}
	.st17{font-size:24px;}
	.st18{font-family:'Roboto-Medium';}
	.st19{font-size:26px;}
	.st20{letter-spacing:-1;}
</style>
<defs>
	<filter id="Adobe_OpacityMaskFilter" filterUnits="userSpaceOnUse" x="160" y="23" width="74" height="416">
		<feFlood  style="flood-color:white;flood-opacity:1" result="back"/>
		<feBlend  in="SourceGraphic" in2="back" mode="normal"/>
	</filter>
</defs>
<mask maskUnits="userSpaceOnUse" x="160" y="23" width="74" height="416" id="outline_00000124155093221700535640000003667189515185616047_">
	<g id="mask_00000102544744580016951010000004309601805183441540_" class="st0">
		<polygon id="_x7B__x7B_py:_x23_0_x2C_g:valuePath_x2C_o:0_x3B_0.5_x7D__x7D_" points="207.29,358.15 231,369.21 231,345.5 		"/>
	</g>
</mask>
<path id="outline" style="mask:url(#outline_00000124155093221700535640000003667189515185616047_);fill:none;stroke:#A0A0A0;stroke-width:4;stroke-miterlimit:10;" d="
	M217,373.28V45c0-5.52-2.24-10.52-5.86-14.14S202.52,25,197,25c-11.05,0-20,8.95-20,20v328.28c-9.07,6.32-15,16.83-15,28.72
	c0,19.33,15.67,35,35,35s35-15.67,35-35C232,390.11,226.07,379.6,217,373.28z"/>
<path id="mercuryBottom" class="st2" d="M209,377.81V356h-24v21.81c-8.89,4.42-15,13.59-15,24.19c0,14.91,12.09,27,27,27
	s27-12.09,27-27C224,391.4,217.89,382.23,209,377.81z"/>
<linearGradient id="mercuryShine_00000129183896829625436350000015475437541085566867_" gradientUnits="userSpaceOnUse" x1="170" y1="393.5" x2="197" y2="393.5">
	<stop  offset="4.910593e-04" style="stop-color:#FFFFFF"/>
	<stop  offset="1" style="stop-color:#FFFFFF;stop-opacity:0.3"/>
</linearGradient>
<path id="mercuryShine" style="opacity:0.3;fill:url(#mercuryShine_00000129183896829625436350000015475437541085566867_);" d="
	M185,358v19.81c-8.89,4.42-15,13.59-15,24.19c0,14.91,12.09,27,27,27v-71H185z"/>
<defs>
	
		<filter id="Adobe_OpacityMaskFilter_00000181792669390967988920000008416327582885833604_" filterUnits="userSpaceOnUse" x="185" y="56" width="24" height="302">
		<feColorMatrix  type="matrix" values="1 0 0 0 0  0 1 0 0 0  0 0 1 0 0  0 0 0 1 0"/>
	</filter>
</defs>
<mask maskUnits="userSpaceOnUse" x="185" y="56" width="24" height="302" id="bar_00000000212221135283982410000015230669040303977655_">
	
		<g id="mask_00000109725597550023429200000002814302164633269379_" style="filter:url(#Adobe_OpacityMaskFilter_00000181792669390967988920000008416327582885833604_);">
		<rect id="_x7B__x7B_sy:_x23_0_x2C_o:0.5_x3B_1_x7D__x7D_" x="185" y="56" class="st5" width="24" height="302"/>
	</g>
</mask>
<g id="bar_00000014598666071666223690000007374098923566915995_" style="mask:url(#bar_00000000212221135283982410000015230669040303977655_);">
	<rect id="bar" x="185" y="56" class="st2" width="24" height="302"/>
	
		<linearGradient id="barShine_00000073688006403074116610000003218393955266727870_" gradientUnits="userSpaceOnUse" x1="185" y1="207" x2="197" y2="207">
		<stop  offset="4.910593e-04" style="stop-color:#FFFFFF"/>
		<stop  offset="1" style="stop-color:#FFFFFF;stop-opacity:0.3"/>
	</linearGradient>
	
		<rect id="barShine" x="185" y="56" style="opacity:0.3;fill:url(#barShine_00000073688006403074116610000003218393955266727870_);" width="12" height="302"/>
</g>
<g id="_x7B__x7B_py:_x23_0_x2C_g:valuePath_x2C_o:0_x3B_0.5_x7D__x7D__00000139268383050630648580000002484237591822170278_">
	<rect id="spacer_00000009583443066101272770000003606393616852562064_" x="209" y="323" class="st8" width="240" height="70"/>
	<g id="pointer_00000029766287966952496440000005579253905957036432_">
		<polygon class="st9" points="211.76,358.03 229,348.83 229,366.07 		"/>
		<path class="st5" d="M228,350.5v14l-14-6.53L228,350.5 M230,347.17l-2.94,1.57l-14,7.47l-3.53,1.88l3.63,1.69l14,6.53l2.85,1.33
			v-3.14v-14V347.17L230,347.17z"/>
	</g>
	<text transform="matrix(1 0 0 1 235.6395 376.7401)" class="st2 st10 st11">{{#0|c}}</text>
</g>
<g id="gridLines" class="st12">
	<line class="st13" x1="217" y1="357" x2="177" y2="357"/>
	<line class="st13" x1="217" y1="282" x2="177" y2="282"/>
	<line class="st13" x1="217" y1="207" x2="177" y2="207"/>
	<line class="st13" x1="217" y1="132" x2="177" y2="132"/>
	<line class="st13" x1="217" y1="57" x2="177" y2="57"/>
</g>
<g id="tickLines">
	<line class="st14" x1="175" y1="357" x2="163" y2="357"/>
	<line class="st14" x1="175" y1="282" x2="163" y2="282"/>
	<line class="st14" x1="175" y1="207" x2="163" y2="207"/>
	<line class="st14" x1="175" y1="132" x2="163" y2="132"/>
	<line class="st14" x1="175" y1="57" x2="163" y2="57"/>
</g>
<g id="_x7B__x7B_ta:end_x7D__x7D__00000183962274609462693090000009469698766163323561_">
	<text id="_x7B__x7B__x23_0_x7C_c_x2C_r:0_x7D__x7D_" transform="matrix(1 0 0 1 44.3277 364.9227)" class="st15 st16 st17">{{#0|c,r:0}}</text>
</g>
<g id="_x7B__x7B_ta:end_x7D__x7D__00000019653917905410595120000010853602402998120352_">
	
		<text id="_x7B__x7B__x23_0_x7C_c_x2C_r:0.25_x7D__x7D__00000105417002910352867200000002051448279613116591_" transform="matrix(1 0 0 1 11.3277 289.9227)" class="st15 st16 st17">{{#0|c,r:0.25}}</text>
</g>
<g id="_x7B__x7B_ta:end_x7D__x7D__00000099650364963467965080000011308901768986062724_">
	<text id="_x7B__x7B__x23_0_x7C_c_x2C_r:0.5_x7D__x7D_" transform="matrix(1 0 0 1 25.3277 214.9227)" class="st15 st16 st17">{{#0|c,r:0.5}}</text>
</g>
<g id="_x7B__x7B_ta:end_x7D__x7D__00000176007822419317546090000006033430549646521478_">
	
		<text id="_x7B__x7B__x23_0_x7C_c_x2C_r:0.75_x7D__x7D__00000071546096274290160660000006445929769651708840_" transform="matrix(1 0 0 1 11.3277 139.9227)" class="st15 st16 st17">{{#0|c,r:0.75}}</text>
</g>
<g id="_x7B__x7B_ta:end_x7D__x7D_">
	
		<text id="_x7B__x7B__x23_0_x7C_c_x2C_r:1_x7D__x7D__00000155837594258409204200000016951266049211963793_" transform="matrix(1 0 0 1 45.3277 64.9227)" class="st15 st16 st17">{{#0|c,r:1}}</text>
</g>
<g>
	<text transform="matrix(1 0 0 1 103.1497 476.9546)"><tspan x="0" y="0" class="st9 st18 st19 st20">T</tspan><tspan x="14.65" y="0" class="st9 st18 st19">empe</tspan><tspan x="79.82" y="0" class="st9 st18 st19">r</tspan><tspan x="88.58" y="0" class="st9 st18 st19">atu</tspan><tspan x="125.73" y="0" class="st9 st18 st19">r</tspan><tspan x="134.63" y="0" class="st9 st18 st19">e 6ft</tspan></text>
</g>
<line id="_x7B__x7B_valuePath_x7D__x7D_" class="st8" x1="209" y1="358" x2="209" y2="56"/>
</svg>
