<?xml version="1.0" encoding="utf-8"?>
<!-- Generator: Adobe Illustrator 25.0.0, SVG Export Plug-In . SVG Version: 6.00 Build 0)  -->
<svg version="1.1" id="Layer_1" xmlns="http://www.w3.org/2000/svg" xmlns:xlink="http://www.w3.org/1999/xlink" x="0px" y="0px"
	 viewBox="0 0 420 290" style="enable-background:new 0 0 420 290;" xml:space="preserve">
<style type="text/css">
	.st0{opacity:0.2;}
	.st1{fill:#5E7475;}
	.st2{fill:#FFDF85;}
	.st3{filter:url(#Adobe_OpacityMaskFilter);}
	.st4{fill:#FFFFFF;}
	.st5{mask:url(#road_fill_1_);}
	.st6{fill:none;stroke:#FF0000;stroke-miterlimit:10;stroke-opacity:0;}
	.st7{fill:#FFFFFF;stroke:#FFFFFF;stroke-width:6;stroke-miterlimit:10;}
	.st8{fill:#1F2628;}
	.st9{fill:none;stroke:#576A6D;stroke-miterlimit:10;}
	.st10{fill:#D3DBDD;}
	.st11{fill:none;stroke:#AFBBBC;stroke-miterlimit:10;}
	.st12{fill:#4D5C5E;}
	.st13{font-family:'AvenirNext-Medium';}
	.st14{font-size:34px;}
	.st15{fill:#C97531;}
	.st16{font-family:'AvenirNext-Bold';}
	.st17{font-size:64px;}
</style>
<g id="road" class="st0">
	<path class="st1" d="M340.6,80.4C305.5,45.3,259.1,26,210,26S114.5,45.3,79.4,80.4S25,161.9,25,211h33c0-2,0-4.1,0.1-6.1l4,0.2
		C62,207,62,209,62,211h33c0-30.4,12-59.3,33.9-81.1C150.7,108,179.6,96,210,96s59.3,12,81.1,33.9C313,151.7,325,180.6,325,211h33
		c0-2,0-4-0.1-5.9l4-0.2c0.1,2,0.1,4.1,0.1,6.1h33C395,161.9,375.7,115.5,340.6,80.4z M62.3,201.1l-4-0.3c0.3-4.1,0.7-8.2,1.3-12.3
		l4,0.6C63,193.1,62.6,197.1,62.3,201.1z M64.3,185.2l-3.9-0.7c0.7-4,1.6-8.1,2.7-12l3.9,1C65.9,177.3,65,181.3,64.3,185.2z
		 M68,169.6l-3.8-1.1c1.2-3.9,2.5-7.9,4-11.7l3.7,1.4C70.4,162,69.1,165.8,68,169.6z M73.3,154.5l-3.7-1.5c1.6-3.8,3.3-7.5,5.2-11.2
		l3.6,1.8C76.6,147.2,74.9,150.8,73.3,154.5z M80.3,140.1l-3.5-1.9c2-3.6,4.1-7.1,6.4-10.6l3.3,2.2
		C84.3,133.1,82.2,136.6,80.3,140.1z M88.8,126.5l-3.3-2.3c2.3-3.3,4.9-6.6,7.5-9.8l3.1,2.6C93.5,120,91.1,123.2,88.8,126.5z
		 M98.7,113.9l-3-2.6c2.7-3.1,5.5-6.1,8.5-9l2.8,2.9C104.1,108,101.3,110.9,98.7,113.9z M109.9,102.4l-2.7-2.9c3-2.8,6.2-5.5,9.4-8
		l2.5,3.1C115.9,97.1,112.8,99.7,109.9,102.4z M122.2,92.2l-2.4-3.2c3.3-2.4,6.7-4.8,10.2-7l2.1,3.4
		C128.7,87.5,125.4,89.8,122.2,92.2z M135.5,83.3l-2-3.4c3.5-2.1,7.2-4,10.9-5.8l1.7,3.6C142.5,79.4,139,81.3,135.5,83.3z M149.7,76
		l-1.6-3.6c3.7-1.7,7.6-3.2,11.4-4.6l1.3,3.8C157.1,72.8,153.4,74.3,149.7,76z M164.6,70.2l-1.2-3.8c3.9-1.3,7.9-2.4,11.9-3.3
		l0.9,3.9C172.3,67.9,168.4,69,164.6,70.2z M180.1,66.1l-0.8-3.9c4-0.8,8.1-1.5,12.2-2l0.5,4C188,64.6,184,65.3,180.1,66.1z
		 M195.9,63.7l-0.4-4c4.1-0.4,8.2-0.6,12.3-0.7l0.1,4C203.9,63.1,199.9,63.3,195.9,63.7z M223.9,63.7c-4-0.4-8-0.6-12-0.6l0.1-4
		c4.1,0.1,8.2,0.3,12.3,0.7L223.9,63.7z M239.8,66c-3.9-0.8-7.9-1.5-11.8-2l0.5-4c4.1,0.5,8.2,1.2,12.2,2L239.8,66z M255.2,70.2
		c-3.8-1.2-7.7-2.3-11.6-3.2l0.9-3.9c4,0.9,8,2.1,11.9,3.3L255.2,70.2z M270.2,75.9c-3.6-1.6-7.4-3.2-11.1-4.5l1.3-3.8
		c3.9,1.4,7.7,2.9,11.5,4.6L270.2,75.9z M284.4,83.3c-3.4-2-7-3.9-10.6-5.7l1.7-3.6c3.7,1.8,7.3,3.7,10.9,5.8L284.4,83.3z
		 M297.8,92.2c-3.2-2.4-6.5-4.7-9.9-6.8L290,82c3.5,2.2,6.9,4.5,10.2,7L297.8,92.2z M310.1,102.4c-2.9-2.7-6-5.3-9.1-7.8l2.5-3.1
		c3.2,2.5,6.4,5.2,9.4,8L310.1,102.4z M313,105.1l2.8-2.9c2.9,2.9,5.8,5.9,8.5,8.9l-3,2.6C318.6,110.9,315.9,107.9,313,105.1z
		 M323.9,116.9l3.1-2.6c2.6,3.2,5.1,6.5,7.5,9.8l-3.3,2.3C328.9,123.2,326.4,120,323.9,116.9z M333.4,129.7l3.3-2.2
		c2.3,3.4,4.4,7,6.4,10.5l-3.5,1.9C337.7,136.5,335.6,133.1,333.4,129.7z M341.5,143.5l3.6-1.8c1.9,3.6,3.6,7.4,5.2,11.2l-3.7,1.5
		C345.1,150.7,343.4,147.1,341.5,143.5z M348.1,158.1l3.7-1.4c1.5,3.8,2.8,7.8,4,11.7l-3.8,1.1C350.9,165.7,349.6,161.8,348.1,158.1
		z M353.1,173.3l3.9-1c1.1,4,2,8,2.7,12l-3.9,0.7C355,181.1,354.1,177.2,353.1,173.3z M357.7,200.9c-0.3-4-0.7-8-1.3-11.9l4-0.6
		c0.6,4,1.1,8.2,1.3,12.3L357.7,200.9z"/>
	<path class="st2" d="M62,211h-4c0-2,0-4.1,0.1-6.1l4,0.2C62,207,62,209,62,211z M63.6,189.1l-4-0.6c-0.6,4-1.1,8.2-1.3,12.3l4,0.3
		C62.6,197.1,63,193.1,63.6,189.1z M361.6,200.7c-0.3-4.1-0.7-8.2-1.3-12.3l-4,0.6c0.6,3.9,1,8,1.3,11.9L361.6,200.7z M66.9,173.5
		l-3.9-1c-1.1,4-2,8-2.7,12l3.9,0.7C65,181.3,65.9,177.3,66.9,173.5z M359.6,184.3c-0.7-4-1.6-8.1-2.7-12l-3.9,1
		c1,3.9,1.9,7.8,2.6,11.7L359.6,184.3z M71.8,158.2l-3.7-1.4c-1.5,3.8-2.8,7.8-4,11.7l3.8,1.1C69.1,165.8,70.4,162,71.8,158.2z
		 M355.8,168.3c-1.2-3.9-2.5-7.8-4-11.7l-3.7,1.4c1.4,3.7,2.7,7.5,3.9,11.4L355.8,168.3z M78.4,143.6l-3.6-1.8
		c-1.9,3.6-3.6,7.4-5.2,11.2l3.7,1.5C74.9,150.8,76.6,147.2,78.4,143.6z M350.3,152.9c-1.6-3.8-3.3-7.5-5.2-11.2l-3.6,1.8
		c1.8,3.5,3.5,7.2,5.1,10.9L350.3,152.9z M86.5,129.8l-3.3-2.2c-2.3,3.4-4.4,7-6.4,10.6l3.5,1.9C82.2,136.6,84.3,133.1,86.5,129.8z
		 M343.2,138.1c-2-3.6-4.1-7.1-6.4-10.5l-3.3,2.2c2.2,3.3,4.3,6.8,6.2,10.3L343.2,138.1z M96.1,116.9l-3.1-2.6
		c-2.6,3.2-5.1,6.5-7.5,9.8l3.3,2.3C91.1,123.2,93.5,120,96.1,116.9z M334.4,124.1c-2.4-3.3-4.9-6.6-7.5-9.8l-3.1,2.6
		c2.5,3.1,5,6.3,7.3,9.5L334.4,124.1z M107,105.2l-2.8-2.9c-2.9,2.9-5.8,5.9-8.5,9l3,2.6C101.3,110.9,104.1,108,107,105.2z
		 M324.3,111.2c-2.7-3.1-5.6-6.1-8.5-8.9l-2.8,2.9c2.9,2.8,5.6,5.7,8.3,8.7L324.3,111.2z M119,94.6l-2.5-3.1c-3.2,2.5-6.4,5.2-9.4,8
		l2.7,2.9C112.8,99.7,115.9,97.1,119,94.6z M312.8,99.4c-3-2.8-6.2-5.5-9.4-8l-2.5,3.1c3.1,2.5,6.2,5.1,9.1,7.8L312.8,99.4z
		 M132.1,85.4L130,82c-3.5,2.2-6.9,4.5-10.2,7l2.4,3.2C125.4,89.8,128.7,87.5,132.1,85.4z M300.1,88.9c-3.3-2.4-6.7-4.8-10.2-7
		l-2.1,3.4c3.4,2.1,6.7,4.4,9.9,6.8L300.1,88.9z M146.1,77.7l-1.7-3.6c-3.7,1.8-7.3,3.7-10.9,5.8l2,3.4
		C139,81.3,142.5,79.4,146.1,77.7z M286.4,79.9c-3.5-2.1-7.2-4-10.9-5.8l-1.7,3.6c3.6,1.7,7.2,3.6,10.6,5.7L286.4,79.9z M160.9,71.5
		l-1.3-3.8c-3.9,1.4-7.7,2.9-11.4,4.6l1.6,3.6C153.4,74.3,157.1,72.8,160.9,71.5z M271.8,72.3c-3.7-1.7-7.6-3.2-11.5-4.6l-1.3,3.8
		c3.8,1.3,7.5,2.8,11.1,4.5L271.8,72.3z M176.2,66.9l-0.9-3.9c-4,0.9-8,2.1-11.9,3.3l1.2,3.8C168.4,69,172.3,67.9,176.2,66.9z
		 M256.5,66.4c-3.9-1.3-7.9-2.4-11.9-3.3l-0.9,3.9c3.9,0.9,7.8,2,11.6,3.2L256.5,66.4z M192,64.1l-0.5-4c-4.1,0.5-8.2,1.2-12.2,2
		l0.8,3.9C184,65.3,188,64.6,192,64.1z M240.6,62.1c-4-0.8-8.1-1.5-12.2-2l-0.5,4c4,0.5,7.9,1.1,11.8,2L240.6,62.1z M207.9,63
		l-0.1-4c-4.1,0.1-8.2,0.3-12.3,0.7l0.4,4C199.9,63.3,203.9,63.1,207.9,63z M224.3,59.7c-4.1-0.4-8.2-0.6-12.3-0.7l-0.1,4
		c4,0.1,8,0.3,12,0.6L224.3,59.7z M361.9,204.9l-4,0.2c0.1,2,0.1,3.9,0.1,5.9h4C362,209,362,206.9,361.9,204.9z"/>
</g>
<defs>
	<filter id="Adobe_OpacityMaskFilter" filterUnits="userSpaceOnUse" x="25" y="26" width="370" height="185">
		<feColorMatrix  type="matrix" values="1 0 0 0 0  0 1 0 0 0  0 0 1 0 0  0 0 0 1 0"/>
	</filter>
</defs>
<mask maskUnits="userSpaceOnUse" x="25" y="26" width="370" height="185" id="road_fill_1_">
	<g class="st3">
		<path id="_x7B__x7B_r:Mileage_x2C_rr:0.5_x2C_o:0.5_x3B_0_x7D__x7D_" class="st4" d="M400,211c0,104.2-85.8,190-190,190
			S20,315.2,20,211H400z"/>
	</g>
</mask>
<g id="road_fill" class="st5">
	<path class="st1" d="M340.6,80.4C305.5,45.3,259.1,26,210,26S114.5,45.3,79.4,80.4S25,161.9,25,211h33c0-2,0-4.1,0.1-6.1l4,0.2
		C62,207,62,209,62,211h33c0-30.4,12-59.3,33.9-81.1C150.7,108,179.6,96,210,96s59.3,12,81.1,33.9C313,151.7,325,180.6,325,211h33
		c0-2,0-4-0.1-5.9l4-0.2c0.1,2,0.1,4.1,0.1,6.1h33C395,161.9,375.7,115.5,340.6,80.4z M62.3,201.1l-4-0.3c0.3-4.1,0.7-8.2,1.3-12.3
		l4,0.6C63,193.1,62.6,197.1,62.3,201.1z M64.3,185.2l-3.9-0.7c0.7-4,1.6-8.1,2.7-12l3.9,1C65.9,177.3,65,181.3,64.3,185.2z
		 M68,169.6l-3.8-1.1c1.2-3.9,2.5-7.9,4-11.7l3.7,1.4C70.4,162,69.1,165.8,68,169.6z M73.3,154.5l-3.7-1.5c1.6-3.8,3.3-7.5,5.2-11.2
		l3.6,1.8C76.6,147.2,74.9,150.8,73.3,154.5z M80.3,140.1l-3.5-1.9c2-3.6,4.1-7.1,6.4-10.6l3.3,2.2
		C84.3,133.1,82.2,136.6,80.3,140.1z M88.8,126.5l-3.3-2.3c2.3-3.3,4.9-6.6,7.5-9.8l3.1,2.6C93.5,120,91.1,123.2,88.8,126.5z
		 M98.7,113.9l-3-2.6c2.7-3.1,5.5-6.1,8.5-9l2.8,2.9C104.1,108,101.3,110.9,98.7,113.9z M109.9,102.4l-2.7-2.9c3-2.8,6.2-5.5,9.4-8
		l2.5,3.1C115.9,97.1,112.8,99.7,109.9,102.4z M122.2,92.2l-2.4-3.2c3.3-2.4,6.7-4.8,10.2-7l2.1,3.4
		C128.7,87.5,125.4,89.8,122.2,92.2z M135.5,83.3l-2-3.4c3.5-2.1,7.2-4,10.9-5.8l1.7,3.6C142.5,79.4,139,81.3,135.5,83.3z M149.7,76
		l-1.6-3.6c3.7-1.7,7.6-3.2,11.4-4.6l1.3,3.8C157.1,72.8,153.4,74.3,149.7,76z M164.6,70.2l-1.2-3.8c3.9-1.3,7.9-2.4,11.9-3.3
		l0.9,3.9C172.3,67.9,168.4,69,164.6,70.2z M180.1,66.1l-0.8-3.9c4-0.8,8.1-1.5,12.2-2l0.5,4C188,64.6,184,65.3,180.1,66.1z
		 M195.9,63.7l-0.4-4c4.1-0.4,8.2-0.6,12.3-0.7l0.1,4C203.9,63.1,199.9,63.3,195.9,63.7z M223.9,63.7c-4-0.4-8-0.6-12-0.6l0.1-4
		c4.1,0.1,8.2,0.3,12.3,0.7L223.9,63.7z M239.8,66c-3.9-0.8-7.9-1.5-11.8-2l0.5-4c4.1,0.5,8.2,1.2,12.2,2L239.8,66z M255.2,70.2
		c-3.8-1.2-7.7-2.3-11.6-3.2l0.9-3.9c4,0.9,8,2.1,11.9,3.3L255.2,70.2z M270.2,75.9c-3.6-1.6-7.4-3.2-11.1-4.5l1.3-3.8
		c3.9,1.4,7.7,2.9,11.5,4.6L270.2,75.9z M284.4,83.3c-3.4-2-7-3.9-10.6-5.7l1.7-3.6c3.7,1.8,7.3,3.7,10.9,5.8L284.4,83.3z
		 M297.8,92.2c-3.2-2.4-6.5-4.7-9.9-6.8L290,82c3.5,2.2,6.9,4.5,10.2,7L297.8,92.2z M310.1,102.4c-2.9-2.7-6-5.3-9.1-7.8l2.5-3.1
		c3.2,2.5,6.4,5.2,9.4,8L310.1,102.4z M313,105.1l2.8-2.9c2.9,2.9,5.8,5.9,8.5,8.9l-3,2.6C318.6,110.9,315.9,107.9,313,105.1z
		 M323.9,116.9l3.1-2.6c2.6,3.2,5.1,6.5,7.5,9.8l-3.3,2.3C328.9,123.2,326.4,120,323.9,116.9z M333.4,129.7l3.3-2.2
		c2.3,3.4,4.4,7,6.4,10.5l-3.5,1.9C337.7,136.5,335.6,133.1,333.4,129.7z M341.5,143.5l3.6-1.8c1.9,3.6,3.6,7.4,5.2,11.2l-3.7,1.5
		C345.1,150.7,343.4,147.1,341.5,143.5z M348.1,158.1l3.7-1.4c1.5,3.8,2.8,7.8,4,11.7l-3.8,1.1C350.9,165.7,349.6,161.8,348.1,158.1
		z M353.1,173.3l3.9-1c1.1,4,2,8,2.7,12l-3.9,0.7C355,181.1,354.1,177.2,353.1,173.3z M357.7,200.9c-0.3-4-0.7-8-1.3-11.9l4-0.6
		c0.6,4,1.1,8.2,1.3,12.3L357.7,200.9z"/>
	<path class="st2" d="M62,211h-4c0-2,0-4.1,0.1-6.1l4,0.2C62,207,62,209,62,211z M63.6,189.1l-4-0.6c-0.6,4-1.1,8.2-1.3,12.3l4,0.3
		C62.6,197.1,63,193.1,63.6,189.1z M361.6,200.7c-0.3-4.1-0.7-8.2-1.3-12.3l-4,0.6c0.6,3.9,1,8,1.3,11.9L361.6,200.7z M66.9,173.5
		l-3.9-1c-1.1,4-2,8-2.7,12l3.9,0.7C65,181.3,65.9,177.3,66.9,173.5z M359.6,184.3c-0.7-4-1.6-8.1-2.7-12l-3.9,1
		c1,3.9,1.9,7.8,2.6,11.7L359.6,184.3z M71.8,158.2l-3.7-1.4c-1.5,3.8-2.8,7.8-4,11.7l3.8,1.1C69.1,165.8,70.4,162,71.8,158.2z
		 M355.8,168.3c-1.2-3.9-2.5-7.8-4-11.7l-3.7,1.4c1.4,3.7,2.7,7.5,3.9,11.4L355.8,168.3z M78.4,143.6l-3.6-1.8
		c-1.9,3.6-3.6,7.4-5.2,11.2l3.7,1.5C74.9,150.8,76.6,147.2,78.4,143.6z M350.3,152.9c-1.6-3.8-3.3-7.5-5.2-11.2l-3.6,1.8
		c1.8,3.5,3.5,7.2,5.1,10.9L350.3,152.9z M86.5,129.8l-3.3-2.2c-2.3,3.4-4.4,7-6.4,10.6l3.5,1.9C82.2,136.6,84.3,133.1,86.5,129.8z
		 M343.2,138.1c-2-3.6-4.1-7.1-6.4-10.5l-3.3,2.2c2.2,3.3,4.3,6.8,6.2,10.3L343.2,138.1z M96.1,116.9l-3.1-2.6
		c-2.6,3.2-5.1,6.5-7.5,9.8l3.3,2.3C91.1,123.2,93.5,120,96.1,116.9z M334.4,124.1c-2.4-3.3-4.9-6.6-7.5-9.8l-3.1,2.6
		c2.5,3.1,5,6.3,7.3,9.5L334.4,124.1z M107,105.2l-2.8-2.9c-2.9,2.9-5.8,5.9-8.5,9l3,2.6C101.3,110.9,104.1,108,107,105.2z
		 M324.3,111.2c-2.7-3.1-5.6-6.1-8.5-8.9l-2.8,2.9c2.9,2.8,5.6,5.7,8.3,8.7L324.3,111.2z M119,94.6l-2.5-3.1c-3.2,2.5-6.4,5.2-9.4,8
		l2.7,2.9C112.8,99.7,115.9,97.1,119,94.6z M312.8,99.4c-3-2.8-6.2-5.5-9.4-8l-2.5,3.1c3.1,2.5,6.2,5.1,9.1,7.8L312.8,99.4z
		 M132.1,85.4L130,82c-3.5,2.2-6.9,4.5-10.2,7l2.4,3.2C125.4,89.8,128.7,87.5,132.1,85.4z M300.1,88.9c-3.3-2.4-6.7-4.8-10.2-7
		l-2.1,3.4c3.4,2.1,6.7,4.4,9.9,6.8L300.1,88.9z M146.1,77.7l-1.7-3.6c-3.7,1.8-7.3,3.7-10.9,5.8l2,3.4
		C139,81.3,142.5,79.4,146.1,77.7z M286.4,79.9c-3.5-2.1-7.2-4-10.9-5.8l-1.7,3.6c3.6,1.7,7.2,3.6,10.6,5.7L286.4,79.9z M160.9,71.5
		l-1.3-3.8c-3.9,1.4-7.7,2.9-11.4,4.6l1.6,3.6C153.4,74.3,157.1,72.8,160.9,71.5z M271.8,72.3c-3.7-1.7-7.6-3.2-11.5-4.6l-1.3,3.8
		c3.8,1.3,7.5,2.8,11.1,4.5L271.8,72.3z M176.2,66.9l-0.9-3.9c-4,0.9-8,2.1-11.9,3.3l1.2,3.8C168.4,69,172.3,67.9,176.2,66.9z
		 M256.5,66.4c-3.9-1.3-7.9-2.4-11.9-3.3l-0.9,3.9c3.9,0.9,7.8,2,11.6,3.2L256.5,66.4z M192,64.1l-0.5-4c-4.1,0.5-8.2,1.2-12.2,2
		l0.8,3.9C184,65.3,188,64.6,192,64.1z M240.6,62.1c-4-0.8-8.1-1.5-12.2-2l-0.5,4c4,0.5,7.9,1.1,11.8,2L240.6,62.1z M207.9,63
		l-0.1-4c-4.1,0.1-8.2,0.3-12.3,0.7l0.4,4C199.9,63.3,203.9,63.1,207.9,63z M224.3,59.7c-4.1-0.4-8.2-0.6-12.3-0.7l-0.1,4
		c4,0.1,8,0.3,12,0.6L224.3,59.7z M361.9,204.9l-4,0.2c0.1,2,0.1,3.9,0.1,5.9h4C362,209,362,206.9,361.9,204.9z"/>
</g>
<g id="path_1_">
	<path id="Guide" class="st6" d="M60,211c0-82.3,67.7-150,150-150s150,67.7,150,150"/>
</g>
<g id="_x7B__x7B_p:Mileage_x2C_g:Guide_x2C_o:0.5_x3B_0.5_x7D__x7D_">
	<g id="tire">
		<path class="st7" d="M259.8,65.4C259.9,65.4,259.9,65.4,259.8,65.4c1.2,0,2-0.8,2.1-1.9c0-0.8,0.1-1.7,0.1-2.5
			c0-2.6-0.2-5.3-0.6-7.9c-0.2-1.1-1.2-1.8-2.3-1.7l0,0c-0.1-0.3-0.1-0.6-0.2-1l0,0c1.1-0.3,1.7-1.4,1.4-2.4
			c-0.9-3.3-2.1-6.6-3.6-9.7c-0.5-1-1.7-1.4-2.7-0.9l0,0c-0.2-0.3-0.3-0.6-0.5-0.9l0,0c0.9-0.6,1.2-1.8,0.7-2.8
			c-1.8-2.9-3.9-5.7-6.3-8.2c-0.8-0.8-2-0.9-2.8-0.1l0,0c-0.2-0.2-0.5-0.5-0.7-0.7l0,0c0.7-0.8,0.6-2.1-0.2-2.8
			c-2.6-2.3-5.4-4.3-8.4-6c-1-0.6-2.2-0.2-2.7,0.7l0,0c-0.3-0.2-0.6-0.3-0.9-0.5l0,0c0.5-1,0-2.2-1-2.6c-3.1-1.4-6.5-2.5-9.8-3.3
			c-1.1-0.2-2.1,0.4-2.4,1.5c0,0,0,0,0,0.1c-0.3-0.1-0.6-0.1-1-0.2l0,0c0.1-1.1-0.6-2.1-1.7-2.2c-2-0.3-4.2-0.4-6.3-0.4l0,0
			c-1.3,0-2.6,0-3.9,0.1c-1.1,0.1-1.9,1-1.8,2.1c0,0,0,0,0,0.1c-0.3,0-0.7,0.1-1,0.1c0,0,0,0,0-0.1c-0.2-1.1-1.2-1.8-2.3-1.6
			c-3.4,0.6-6.8,1.5-10,2.8c-1,0.4-1.5,1.6-1.1,2.6l0,0c-0.3,0.1-0.6,0.3-0.9,0.4l0,0c-0.5-1-1.7-1.4-2.7-0.9
			c-3.1,1.6-6,3.5-8.7,5.6c-0.9,0.7-1,1.9-0.3,2.8l0,0c-0.3,0.2-0.5,0.4-0.8,0.7l0,0c-0.8-0.8-2-0.8-2.8,0c-2.5,2.4-4.7,5.1-6.7,7.9
			c-0.6,0.9-0.4,2.2,0.5,2.8l0,0c-0.2,0.3-0.4,0.6-0.5,0.8l0,0c-1-0.5-2.2-0.2-2.7,0.8c-1.7,3-3,6.2-4,9.5c-0.3,1.1,0.3,2.2,1.3,2.5
			l0,0c-0.1,0.3-0.2,0.6-0.2,1l0,0c-1.1-0.2-2.1,0.5-2.4,1.6c-0.7,3.4-1,6.8-1,10.3v0.2c0,1.1,0.9,2,2,2l0,0l0,0c0,0.3,0,0.7,0.1,1
			c0,0,0,0-0.1,0c-1.1,0.1-1.9,1.1-1.8,2.2c0.4,3.4,1.1,6.9,2.1,10.1c0.3,0.9,1.1,1.4,1.9,1.4c0.2,0,0.4,0,0.6-0.1l0,0
			c0.1,0.3,0.2,0.6,0.3,0.9l0,0c-1,0.4-1.5,1.6-1.1,2.6c1.4,3.2,3,6.2,5,9.1c0.4,0.6,1,0.9,1.6,0.9c0.4,0,0.8-0.1,1.1-0.4l0,0
			c0.2,0.3,0.4,0.5,0.6,0.8l0,0c-0.8,0.7-0.9,2-0.2,2.8c2.2,2.6,4.7,5.1,7.4,7.2c0.4,0.3,0.8,0.4,1.2,0.4c0.6,0,1.2-0.3,1.6-0.8l0,0
			c0.3,0.2,0.5,0.4,0.8,0.6l0,0c-0.6,0.9-0.3,2.2,0.6,2.8c2.9,1.9,6,3.4,9.2,4.7c0.2,0.1,0.5,0.1,0.7,0.1c0.8,0,1.6-0.5,1.9-1.3
			c0,0,0,0,0-0.1c0.3,0.1,0.6,0.2,0.9,0.3l0,0c-0.3,1.1,0.3,2.2,1.4,2.5c3.3,0.9,6.7,1.5,10.2,1.8h0.1c1,0,1.9-0.8,2-1.9
			c0,0,0,0,0-0.1c0.3,0,0.7,0,1,0c0,0,0,0,0,0.1c0,1.1,0.9,1.9,2,1.9c0,0,0,0,0.1,0c3.5-0.1,6.9-0.5,10.3-1.3
			c1.1-0.2,1.7-1.3,1.5-2.4c0,0,0,0,0-0.1c0.3-0.1,0.6-0.2,1-0.3c0,0,0,0,0,0.1c0.3,0.8,1.1,1.4,1.9,1.4c0.2,0,0.4,0,0.6-0.1
			c3.3-1.1,6.4-2.6,9.4-4.3c1-0.6,1.3-1.8,0.7-2.7l0,0c0.3-0.2,0.6-0.4,0.8-0.5l0,0c0.4,0.5,1,0.8,1.6,0.8c0.4,0,0.8-0.1,1.2-0.4
			c2.8-2,5.4-4.3,7.7-6.9c0.7-0.8,0.7-2.1-0.1-2.8l0,0c0.2-0.3,0.4-0.5,0.6-0.8l0,0c0.4,0.3,0.8,0.4,1.2,0.4c0.6,0,1.2-0.3,1.6-0.8
			c2.1-2.8,3.9-5.7,5.4-8.8c0.5-1,0.1-2.2-0.9-2.7l0,0c0.1-0.3,0.3-0.6,0.4-0.9l0,0c0.2,0.1,0.5,0.1,0.7,0.1c0.8,0,1.6-0.5,1.9-1.3
			c1.2-3.2,2-6.6,2.5-10c0.2-1.1-0.6-2.1-1.7-2.3l0,0C259.7,66,259.8,65.7,259.8,65.4L259.8,65.4z"/>
		<path class="st8" d="M259.8,65.4C259.9,65.4,259.9,65.4,259.8,65.4c1.2,0,2-0.8,2.1-1.9c0-0.8,0.1-1.7,0.1-2.5
			c0-2.6-0.2-5.3-0.6-7.9c-0.2-1.1-1.2-1.8-2.3-1.7l0,0c-0.1-0.3-0.1-0.6-0.2-1l0,0c1.1-0.3,1.7-1.4,1.4-2.4
			c-0.9-3.3-2.1-6.6-3.6-9.7c-0.5-1-1.7-1.4-2.7-0.9l0,0c-0.2-0.3-0.3-0.6-0.5-0.9l0,0c0.9-0.6,1.2-1.8,0.7-2.8
			c-1.8-2.9-3.9-5.7-6.3-8.2c-0.8-0.8-2-0.9-2.8-0.1l0,0c-0.2-0.2-0.5-0.5-0.7-0.7l0,0c0.7-0.8,0.6-2.1-0.2-2.8
			c-2.6-2.3-5.4-4.3-8.4-6c-1-0.6-2.2-0.2-2.7,0.7l0,0c-0.3-0.2-0.6-0.3-0.9-0.5l0,0c0.5-1,0-2.2-1-2.6c-3.1-1.4-6.5-2.5-9.8-3.3
			c-1.1-0.2-2.1,0.4-2.4,1.5c0,0,0,0,0,0.1c-0.3-0.1-0.6-0.1-1-0.2l0,0c0.1-1.1-0.6-2.1-1.7-2.2c-2-0.3-4.2-0.4-6.3-0.4l0,0
			c-1.3,0-2.6,0-3.9,0.1c-1.1,0.1-1.9,1-1.8,2.1c0,0,0,0,0,0.1c-0.3,0-0.7,0.1-1,0.1c0,0,0,0,0-0.1c-0.2-1.1-1.2-1.8-2.3-1.6
			c-3.4,0.6-6.8,1.5-10,2.8c-1,0.4-1.5,1.6-1.1,2.6l0,0c-0.3,0.1-0.6,0.3-0.9,0.4l0,0c-0.5-1-1.7-1.4-2.7-0.9
			c-3.1,1.6-6,3.5-8.7,5.6c-0.9,0.7-1,1.9-0.3,2.8l0,0c-0.3,0.2-0.5,0.4-0.8,0.7l0,0c-0.8-0.8-2-0.8-2.8,0c-2.5,2.4-4.7,5.1-6.7,7.9
			c-0.6,0.9-0.4,2.2,0.5,2.8l0,0c-0.2,0.3-0.4,0.6-0.5,0.8l0,0c-1-0.5-2.2-0.2-2.7,0.8c-1.7,3-3,6.2-4,9.5c-0.3,1.1,0.3,2.2,1.3,2.5
			l0,0c-0.1,0.3-0.2,0.6-0.2,1l0,0c-1.1-0.2-2.1,0.5-2.4,1.6c-0.7,3.4-1,6.8-1,10.3v0.2c0,1.1,0.9,2,2,2l0,0l0,0c0,0.3,0,0.7,0.1,1
			c0,0,0,0-0.1,0c-1.1,0.1-1.9,1.1-1.8,2.2c0.4,3.4,1.1,6.9,2.1,10.1c0.3,0.9,1.1,1.4,1.9,1.4c0.2,0,0.4,0,0.6-0.1l0,0
			c0.1,0.3,0.2,0.6,0.3,0.9l0,0c-1,0.4-1.5,1.6-1.1,2.6c1.4,3.2,3,6.2,5,9.1c0.4,0.6,1,0.9,1.6,0.9c0.4,0,0.8-0.1,1.1-0.4l0,0
			c0.2,0.3,0.4,0.5,0.6,0.8l0,0c-0.8,0.7-0.9,2-0.2,2.8c2.2,2.6,4.7,5.1,7.4,7.2c0.4,0.3,0.8,0.4,1.2,0.4c0.6,0,1.2-0.3,1.6-0.8l0,0
			c0.3,0.2,0.5,0.4,0.8,0.6l0,0c-0.6,0.9-0.3,2.2,0.6,2.8c2.9,1.9,6,3.4,9.2,4.7c0.2,0.1,0.5,0.1,0.7,0.1c0.8,0,1.6-0.5,1.9-1.3
			c0,0,0,0,0-0.1c0.3,0.1,0.6,0.2,0.9,0.3l0,0c-0.3,1.1,0.3,2.2,1.4,2.5c3.3,0.9,6.7,1.5,10.2,1.8h0.1c1,0,1.9-0.8,2-1.9
			c0,0,0,0,0-0.1c0.3,0,0.7,0,1,0c0,0,0,0,0,0.1c0,1.1,0.9,1.9,2,1.9c0,0,0,0,0.1,0c3.5-0.1,6.9-0.5,10.3-1.3
			c1.1-0.2,1.7-1.3,1.5-2.4c0,0,0,0,0-0.1c0.3-0.1,0.6-0.2,1-0.3c0,0,0,0,0,0.1c0.3,0.8,1.1,1.4,1.9,1.4c0.2,0,0.4,0,0.6-0.1
			c3.3-1.1,6.4-2.6,9.4-4.3c1-0.6,1.3-1.8,0.7-2.7l0,0c0.3-0.2,0.6-0.4,0.8-0.5l0,0c0.4,0.5,1,0.8,1.6,0.8c0.4,0,0.8-0.1,1.2-0.4
			c2.8-2,5.4-4.3,7.7-6.9c0.7-0.8,0.7-2.1-0.1-2.8l0,0c0.2-0.3,0.4-0.5,0.6-0.8l0,0c0.4,0.3,0.8,0.4,1.2,0.4c0.6,0,1.2-0.3,1.6-0.8
			c2.1-2.8,3.9-5.7,5.4-8.8c0.5-1,0.1-2.2-0.9-2.7l0,0c0.1-0.3,0.3-0.6,0.4-0.9l0,0c0.2,0.1,0.5,0.1,0.7,0.1c0.8,0,1.6-0.5,1.9-1.3
			c1.2-3.2,2-6.6,2.5-10c0.2-1.1-0.6-2.1-1.7-2.3l0,0C259.7,66,259.8,65.7,259.8,65.4L259.8,65.4z"/>
		<circle class="st9" cx="210" cy="61" r="47"/>
		<g id="rim_1_">
			<path id="rim_2_" class="st10" d="M231.2,39.8c-11.7-11.7-30.7-11.7-42.4,0c-11.7,11.7-11.7,30.7,0,42.4s30.7,11.7,42.4,0
				C242.9,70.5,242.9,51.5,231.2,39.8z M229,48.5l-9.7,3.2c-1.6,0.5-3.2-0.7-3.2-2.3V39.1c0-1.7,1.7-2.9,3.3-2.3
				c3.3,1.3,6.4,3.2,9,5.9c0.6,0.6,1.2,1.3,1.8,2C231.2,45.9,230.6,47.9,229,48.5z M191.7,42.7c2.6-2.6,5.7-4.6,9-5.9
				c1.6-0.6,3.3,0.6,3.3,2.3v10.2c0,1.7-1.6,2.8-3.2,2.3l-9.7-3.2c-1.6-0.5-2.2-2.5-1.2-3.8C190.4,44,191,43.3,191.7,42.7z
				 M187.3,60l9.7,3.1c1.6,0.5,2.2,2.4,1.2,3.7l-6,8.2c-1,1.4-3.1,1.3-4-0.1c-2.5-3.9-3.9-8.2-4.1-12.7
				C184,60.7,185.7,59.5,187.3,60z M202,82.3l6-8.2c1-1.3,3-1.3,3.9,0l6,8.2c1,1.4,0.3,3.3-1.3,3.8c-4.3,1.1-8.9,1.1-13.3,0
				C201.7,85.7,201,83.7,202,82.3z M227.8,75.2l-6-8.2c-1-1.3-0.4-3.2,1.2-3.7l9.7-3.1c1.6-0.5,3.3,0.7,3.2,2.4
				c-0.2,4.4-1.6,8.8-4.1,12.7C230.9,76.5,228.8,76.5,227.8,75.2z"/>
			<g>
				<circle class="st11" cx="210" cy="61" r="6"/>
			</g>
			<g id="bolts_1_">
				<g>
					<circle class="st12" cx="209.9" cy="50.5" r="2"/>
				</g>
				<g>
					<circle class="st12" cx="203.9" cy="69.5" r="2"/>
				</g>
				<g>
					<circle class="st12" cx="200" cy="57.7" r="2"/>
				</g>
				<g>
					<circle class="st12" cx="220" cy="57.7" r="2"/>
				</g>
				<g>
					<circle class="st12" cx="216" cy="69.5" r="2"/>
				</g>
			</g>
		</g>
	</g>
</g>
<g id="_x7B__x7B_align:middle_x7D__x7D__2_">
	<text transform="matrix(1 0 0 1 141.8315 274.5599)" class="st1 st13 st14">{{Brand}}</text>
</g>
<g id="_x7B__x7B_align:middle_x7D__x7D__3_">
	<text id="_x7B__x7B_Mileage_x7D__x7D__2_" transform="matrix(1 0 0 1 39.5385 211.4318)" class="st15 st16 st17">{{Mileage}}</text>
</g>
</svg>
