<?xml version="1.0" encoding="utf-8"?>
<!-- Generator: Adobe Illustrator 26.0.1, SVG Export Plug-In . SVG Version: 6.00 Build 0)  -->
<svg version="1.1" id="WarrantyCost_x5F_Gauge_00000157273055666089563840000010726007685598505873_"
	 xmlns="http://www.w3.org/2000/svg" xmlns:xlink="http://www.w3.org/1999/xlink" x="0px" y="0px" viewBox="0 0 540 540"
	 style="enable-background:new 0 0 540 540;" xml:space="preserve">
<style type="text/css">
	.st0{fill:#A0A0A0;}
	.st1{fill:#0293A0;}
	.st2{opacity:0.2;}
	.st3{fill:none;stroke:#000000;stroke-width:2;stroke-miterlimit:10;stroke-dasharray:3,2;}
	.st4{filter:url(#Adobe_OpacityMaskFilter);}
	.st5{fill:#FFFFFF;}
	.st6{mask:url(#bar_00000142878156990567379950000013892372963906533022_);}
	.st7{fill:#1D1D1D;}
	.st8{fill:none;stroke:#FFFFFF;stroke-width:2;stroke-miterlimit:10;stroke-dasharray:3,2;}
	.st9{font-family:'Roboto-Bold';}
	.st10{font-size:20px;}
	.st11{opacity:0.3;fill:url(#shine_00000109028636518064055970000001146726291501227143_);}
	.st12{fill:#696969;}
	.st13{font-family:'Roboto-Regular';}
	.st14{font-size:24px;}
	.st15{font-family:'Roboto-Medium';}
	.st16{font-size:26px;}
	.st17{letter-spacing:-2;}
	.st18{fill:none;}
	.st19{fill:#01929F;}
	.st20{font-size:50px;}
</style>
<g id="outline">
	<path class="st0" d="M303.83,121h-53.52c-1.47-12.2-11.79-21.5-24.31-21.5s-22.84,9.3-24.31,21.5h-53.52L122,147.17V452
		c0,4.41,3.59,8,8,8h192c4.41,0,8-3.59,8-8V147.17L303.83,121z M326,452c0,2.21-1.79,4-4,4H130c-2.21,0-4-1.79-4-4V148.83
		L149.83,125h55.7v-1.94c0.48-10.97,9.47-19.56,20.47-19.56s19.99,8.59,20.47,19.56V125h55.7L326,148.83V452z"/>
	<path class="st0" d="M237.94,122.8c-0.61-6.16-5.74-10.8-11.94-10.8s-11.33,4.64-11.94,10.82c-0.04,0.39-0.06,0.78-0.06,1.18
		c0,6.62,5.38,12,12,12s12-5.38,12-12c0-0.4-0.02-0.79-0.06-1.18L237.94,122.8z M226,132c-4.41,0-8-3.59-8-8
		c0-0.28,0.02-0.55,0.04-0.8c0.41-4.1,3.83-7.2,7.96-7.2c4.13,0,7.55,3.09,7.96,7.19c0.02,0.27,0.04,0.54,0.04,0.81
		C234,128.41,230.41,132,226,132z"/>
</g>
<g id="string">
	<g>
		<path class="st0" d="M237.87,96.77c-0.95-1.39-2.32-2.38-3.87-2.89V100h-0.05c0.27,0.6,0.3,1.28,0.05,1.91l-6.33,16.18
			c-0.5,1.29,0.13,2.74,1.42,3.24c0.3,0.12,0.61,0.17,0.91,0.17c1,0,1.94-0.6,2.33-1.59l6.33-16.18
			C239.56,101.42,239.27,98.82,237.87,96.77z"/>
		<path class="st0" d="M218,101.91c-0.25-0.63-0.22-1.31,0.05-1.91H218v-6.12c-1.55,0.51-2.92,1.5-3.87,2.89
			c-1.4,2.05-1.69,4.65-0.79,6.96l6.33,16.18c0.5,1.29,1.95,1.92,3.24,1.42c1.29-0.5,1.92-1.95,1.42-3.24L218,101.91z"/>
	</g>
	<g>
		<path class="st0" d="M316,108c-15.99,0-29-13.01-29-29v-1.5c0-17.09-13.91-31-31-31s-31,13.91-31,31v23c0,1.38-1.12,2.5-2.5,2.5
			s-2.5-1.12-2.5-2.5v-23c0-19.85,16.15-36,36-36s36,16.15,36,36V79c0,13.23,10.77,24,24,24s24-10.77,24-24c0-1.38,1.12-2.5,2.5-2.5
			s2.5,1.12,2.5,2.5C345,94.99,331.99,108,316,108z"/>
		<path class="st0" d="M316,115c-19.85,0-36-16.15-36-36v-1.5c0-13.23-10.77-24-24-24s-24,10.77-24,24v23c0,1.38-1.12,2.5-2.5,2.5
			s-2.5-1.12-2.5-2.5v-23c0-15.99,13.01-29,29-29s29,13.01,29,29V79c0,17.09,13.91,31,31,31c9.65,0,18.59-4.4,24.53-12.06
			c0.85-1.09,2.41-1.29,3.51-0.45c1.09,0.85,1.29,2.42,0.45,3.51C337.59,109.9,327.21,115,316,115z"/>
	</g>
</g>
<path id="background_color" class="st1" d="M299,136h-55.79c-3.8,5.43-10.09,9-17.21,9s-13.41-3.57-17.21-9H153l-17,17v293h180V153
	L299,136z M311,441H141V341h170V441z"/>
<g id="grid_lines_00000160188455131796659550000002358955986317617840_" class="st2">
	<g>
		<line class="st3" x1="326" y1="335" x2="125" y2="335"/>
	</g>
	<g>
		<line class="st3" x1="326" y1="290" x2="125" y2="290"/>
	</g>
	<g>
		<line class="st3" x1="326" y1="245" x2="125" y2="245"/>
	</g>
	<g>
		<line class="st3" x1="326" y1="200" x2="125" y2="200"/>
	</g>
	<g>
		<line class="st3" x1="326" y1="155" x2="125" y2="155"/>
	</g>
</g>
<defs>
	<filter id="Adobe_OpacityMaskFilter" filterUnits="userSpaceOnUse" x="206" y="154" width="40" height="182">
		<feColorMatrix  type="matrix" values="1 0 0 0 0  0 1 0 0 0  0 0 1 0 0  0 0 0 1 0"/>
	</filter>
</defs>
<mask maskUnits="userSpaceOnUse" x="206" y="154" width="40" height="182" id="bar_00000001629125142815248680000005283029980605614524_">
	<g id="mask" class="st4">
		<rect id="_x7B__x7B_sy:_x23_0_x2C_o:0.5_x3B_1_x7D__x7D_" x="206" y="154" class="st5" width="40" height="182"/>
	</g>
</mask>
<g id="bar_00000075854356459916241020000016491690230725533119_" style="mask:url(#bar_00000001629125142815248680000005283029980605614524_);">
	<rect id="bar" x="206" y="154" class="st7" width="40" height="182"/>
	<g id="grid_lines_00000135650177593299540770000011175515799606790289_" class="st2">
		<g>
			<line class="st8" x1="246" y1="335" x2="206" y2="335"/>
		</g>
		<g>
			<line class="st8" x1="246" y1="290" x2="206" y2="290"/>
		</g>
		<g>
			<line class="st8" x1="246" y1="245" x2="206" y2="245"/>
		</g>
		<g>
			<line class="st8" x1="246" y1="200" x2="206" y2="200"/>
		</g>
		<g>
			<line class="st8" x1="246" y1="155" x2="206" y2="155"/>
		</g>
	</g>
</g>
<g id="icon">
	<path class="st1" d="M261.08,417.73l-16.84-16.84l-3.43,3.43l-1.18-1.18l2.14-2.17c4.8-4.8,4.78-12.63-0.05-17.45l-5.51-5.52
		l2.12-2.12c5.08,1.64,10.64,0.34,14.47-3.5c3.72-3.72,5.09-9.17,3.58-14.22l-0.96-3.21l-8.72,8.72l-5.4-5.4l8.72-8.72l-3.21-0.96
		c-5.05-1.51-10.49-0.14-14.21,3.58c-3.83,3.84-5.14,9.39-3.5,14.47l-2.69,2.69l-1.71-1.71c-1.35-1.35-3.14-2.09-5.09-2.06
		c-1.91,0.02-3.71,0.79-5.08,2.15c-1.32,1.32-2.03,3.03-2.13,4.75c-0.26-0.03-0.53-0.04-0.8-0.04c-1.91,0.02-3.71,0.79-5.08,2.15
		c-1.36,1.36-2.13,3.17-2.15,5.08c0,0.08,0.01,0.16,0.01,0.25c-1.91-0.04-3.83,0.66-5.29,2.11c-1.86,1.86-2.48,4.48-1.9,6.86
		c-1.25,0.25-2.4,0.86-3.32,1.79l-1,1c-2.55,2.55-2.55,6.71,0,9.26l0.97,0.97l-3.33,3.33c-3.81-0.75-7.75,0.43-10.52,3.21
		c-3.29,3.29-4.32,8.21-2.62,12.54l1.12,2.85l7.15-7.15l2.66,2.66l-7.15,7.15l2.85,1.12c1.39,0.54,2.84,0.81,4.27,0.81
		c3.05,0,6.04-1.19,8.27-3.42c2.78-2.78,3.95-6.72,3.21-10.52l3.68-3.68c0.78,0.33,1.63,0.5,2.51,0.5c0.23,0,0.46-0.01,0.68-0.04
		l7.05,7.05c2.67,2.67,6.85,2.45,9.81,0.67l1.35,1.35l-3.43,3.43l11.84,11.84c0.39,0.39,0.9,0.59,1.41,0.59s1.02-0.2,1.41-0.59
		c0.78-0.78,0.78-2.05,0-2.83l-1.15-1.15l17.18-17.18l6.15,6.15c0.39,0.39,0.9,0.59,1.41,0.59s1.02-0.2,1.41-0.59
		C261.87,419.78,261.87,418.51,261.08,417.73z M233.26,366.34c-1.68-3.9-0.83-8.36,2.16-11.35c1.76-1.76,4.07-2.79,6.47-2.98
		l-6.26,6.26l11.06,11.06l6.26-6.26c-0.19,2.41-1.22,4.71-2.98,6.47c-3,3-7.46,3.85-11.35,2.16l-1.25-0.54l-4.56,4.56l-3.57-3.58
		l4.56-4.56L233.26,366.34z M217.36,370.54c0.62-0.62,1.44-0.97,2.3-0.98c0.85,0.01,1.63,0.3,2.21,0.89l5.65,5.65
		c-0.89,0.37-1.71,0.92-2.41,1.62l-2.59,2.59l-5.26-5.26C216.04,373.83,216.09,371.81,217.36,370.54z M209.26,381.91
		c-0.58-0.58-0.9-1.37-0.89-2.21c0.01-0.86,0.36-1.68,0.98-2.3c0.62-0.62,1.44-0.97,2.3-0.98c0.87,0.02,1.63,0.3,2.21,0.89
		l5.83,5.83l-4.6,4.6L209.26,381.91z M201.92,384.83c1.27-1.27,3.34-1.26,4.62,0.01l5.75,5.75c-1.14,1.43-1.76,3.25-1.7,5.1
		c0.04,1.09,0.3,2.16,0.77,3.13c-0.11-0.08-0.21-0.16-0.31-0.26l-7.38-7.38l-0.54-0.54c0,0,0,0,0,0l-1.2-1.2
		C200.66,388.17,200.65,386.1,201.92,384.83z M195.7,394.48l1-1c0.48-0.48,1.12-0.75,1.8-0.75c0.68,0,1.32,0.27,1.8,0.75l8.43,8.43
		c0.48,0.48,0.75,1.12,0.75,1.8c0,0.68-0.27,1.32-0.75,1.8l-1,1c-0.96,0.96-2.64,0.96-3.61,0l-8.43-8.43
		C194.71,397.09,194.71,395.47,195.7,394.48z M195.27,413.26l0.35,1.15c0.84,2.74,0.11,5.7-1.91,7.72c-1.31,1.31-3.02,2.08-4.8,2.23
		l5.04-5.04l-8.32-8.32l-5.04,5.04c0.15-1.78,0.91-3.49,2.23-4.8c2.02-2.02,4.98-2.75,7.72-1.91l1.15,0.35l4.98-4.98l3.58,3.58
		L195.27,413.26z M223.66,413.46l-1.41,1.41c-1.46,1.46-4.29,2.03-5.75,0.57l-6.02-6.02c0.03-0.03,0.06-0.05,0.09-0.08l1-1
		c1.24-1.24,1.92-2.88,1.92-4.63c0-0.06-0.01-0.12-0.01-0.18c0.93-0.01,1.86-0.22,2.74-0.59c2.55,0.7,5.35-0.02,7.46-2.13l5.23-5.23
		l0.1,1.09c0.1,1.1,1.07,1.92,2.17,1.81c1.1-0.1,1.91-1.07,1.81-2.17l-0.86-9.6l-11.28,11.28c-1.47,1.47-3.52,1.62-4.96,0.35
		c-0.8-0.71-1.27-1.68-1.3-2.75c-0.03-1.05,0.35-2.04,1.09-2.77l12.25-12.25c0.7-0.7,1.58-1.07,2.6-1.05c1,0.02,1.95,0.43,2.67,1.15
		l5.68,5.69c3.26,3.27,3.29,8.56,0.04,11.81l-4.94,5.01l5.27,5.27l-10.32,10.32L223.66,413.46z M233.51,430.18l-6.45-6.45l3.43-3.43
		l-0.13-0.13l10.32-10.32l0.14,0.14l3.43-3.43l6.45,6.45L233.51,430.18z"/>
	<path class="st1" d="M230.96,421.3c-1.34,1.34-1.34,3.51,0,4.84c0.67,0.67,1.54,1,2.42,1c0.88,0,1.75-0.33,2.42-1
		c1.34-1.34,1.34-3.51,0-4.84C234.46,419.96,232.29,419.97,230.96,421.3z M234.39,424.73c-0.56,0.56-1.46,0.56-2.02,0
		c-0.56-0.56-0.56-1.46,0-2.02c0.28-0.28,0.64-0.42,1.01-0.42s0.73,0.14,1.01,0.42C234.94,423.27,234.94,424.17,234.39,424.73z"/>
</g>
<g id="_x24__corner">
	<g>
		<polygon class="st1" points="308,388 258,438 308,438 		"/>
	</g>
	<g>
		<text transform="matrix(1 0 0 1 288.2627 429.5801)" class="st5 st9 st10">$</text>
	</g>
</g>
<g id="tick_lines_00000011725720712915760610000017550284979597382078_">
	<g>
		<g>
			<path class="st0" d="M125,336h-12c-0.55,0-1-0.45-1-1s0.45-1,1-1h12c0.55,0,1,0.45,1,1S125.55,336,125,336z"/>
		</g>
	</g>
	<g>
		<g>
			<path class="st0" d="M125,291h-12c-0.55,0-1-0.45-1-1s0.45-1,1-1h12c0.55,0,1,0.45,1,1S125.55,291,125,291z"/>
		</g>
	</g>
	<g>
		<g>
			<path class="st0" d="M125,246h-12c-0.55,0-1-0.45-1-1s0.45-1,1-1h12c0.55,0,1,0.45,1,1S125.55,246,125,246z"/>
		</g>
	</g>
	<g>
		<g>
			<path class="st0" d="M125,201h-12c-0.55,0-1-0.45-1-1s0.45-1,1-1h12c0.55,0,1,0.45,1,1S125.55,201,125,201z"/>
		</g>
	</g>
	<g>
		<g>
			<path class="st0" d="M125,156h-12c-0.55,0-1-0.45-1-1s0.45-1,1-1h12c0.55,0,1,0.45,1,1S125.55,156,125,156z"/>
		</g>
	</g>
</g>
<linearGradient id="shine_00000094578359556392567770000017273256276129844143_" gradientUnits="userSpaceOnUse" x1="153.4001" y1="218.6193" x2="234.8404" y2="291.2784">
	<stop  offset="0" style="stop-color:#FFFFFF"/>
	<stop  offset="1" style="stop-color:#FFFFFF;stop-opacity:0.3"/>
</linearGradient>
<path id="shine" style="opacity:0.3;fill:url(#shine_00000094578359556392567770000017273256276129844143_);" d="M299,136h-55.79
	c-3.8,5.43-10.09,9-17.21,9s-13.41-3.57-17.21-9H153l-17,17v262.62L316,192v-39L299,136z"/>
<text transform="matrix(1 0 0 1 46.0469 163.5313)"><tspan x="0" y="0" class="st12 st13 st14">$40M</tspan><tspan x="0" y="45" class="st12 st13 st14">$30M</tspan><tspan x="0" y="90" class="st12 st13 st14">$20M</tspan><tspan x="0" y="135" class="st12 st13 st14">$10M</tspan><tspan x="13.48" y="180" class="st12 st13 st14">$0M</tspan></text>
<g>
	<text transform="matrix(1 0 0 1 129.6014 496.9539)"><tspan x="0" y="0" class="st7 st15 st16 st17">T</tspan><tspan x="13.14" y="0" class="st7 st15 st16">otal Labor Cost</tspan></text>
</g>
<g id="_x7B__x7B_py:_x23_0_x2C_g:valuePath_x2C_o:0_x3B_0.5_x7D__x7D_">
	<rect id="spacer" x="316" y="308" class="st18" width="190" height="54"/>
	<g>
		<text transform="matrix(1 0 0 1 339.6395 350.4998)" class="st19 st9 st20">{{#0|c}}</text>
	</g>
	<polygon class="st5" points="334.53,322.78 331.59,324.35 316.59,332.35 311.29,335.18 313.1,336.03 316.73,337.72 331.73,344.72 
		334.58,346.05 336,346.71 336,322 	"/>
	<g>
		<polygon class="st7" points="333,342 318,335 333,327 		"/>
	</g>
</g>
<line id="_x7B__x7B_valuePath_x7D__x7D_" class="st18" x1="311" y1="336" x2="311" y2="154"/>
</svg>
