<?xml version="1.0" encoding="utf-8"?>
<!-- Generator: Adobe Illustrator 26.0.1, SVG Export Plug-In . SVG Version: 6.00 Build 0)  -->
<svg version="1.1" id="WarrantyCost_x5F_KeyValue" xmlns="http://www.w3.org/2000/svg" xmlns:xlink="http://www.w3.org/1999/xlink"
	 x="0px" y="0px" viewBox="0 0 320 500" style="enable-background:new 0 0 320 500;" xml:space="preserve">
<style type="text/css">
	.st0{fill:url(#colored_background_00000133527378981976931030000012391667414841843595_);}
	.st1{fill:#FFFFFF;}
	.st2{fill:#A0A0A0;}
	.st3{fill:#01929F;}
	.st4{font-family:'Roboto-Bold';}
	.st5{font-size:50px;}
	.st6{font-family:'Roboto-Medium';}
	.st7{font-size:20px;}
	.st8{letter-spacing:-2;}
	.st9{opacity:0.3;fill:url(#shine_00000007427460689430127110000000461294000906054070_);}
</style>
<linearGradient id="colored_background_00000044864307702936190210000003045308660629562278_" gradientUnits="userSpaceOnUse" x1="145" y1="463" x2="145" y2="151">
	<stop  offset="1.574796e-03" style="stop-color:#0293A0"/>
	<stop  offset="1" style="stop-color:#01929F"/>
</linearGradient>
<path id="colored_background" style="fill:url(#colored_background_00000044864307702936190210000003045308660629562278_);" d="
	M220.03,151h-51.54c-4.3,8.03-12.77,13.5-22.49,13.5s-18.19-5.47-22.49-13.5H69.97L47,173.97V463h196V173.97L220.03,151z"/>
<rect id="value_string_background" x="52" y="358" class="st1" width="186" height="100"/>
<g id="icon">
	<path class="st1" d="M205.51,290.02l-25.24-25.24l-4.64,4.64l-7.9-7.9l3.35-3.35c6.69-6.69,6.69-17.57,0-24.26l-8.64-8.64
		c-0.42-0.42-0.88-0.79-1.35-1.13l3.87-3.87c7.24,2.56,15.25,0.79,20.74-4.7c5.2-5.2,7.11-12.8,5-19.85l-0.96-3.21l-12.14,12.14
		l-9.2-9.2l12.14-12.14l-3.21-0.96c-7.05-2.11-14.66-0.19-19.85,5c-5.49,5.49-7.27,13.5-4.7,20.74l-5.24,5.24l-1.93-1.93
		c-3.73-3.73-9.79-3.73-13.52,0c-1.81,1.81-2.8,4.21-2.8,6.76c0,0.04,0.01,0.08,0.01,0.13c-0.8-0.21-1.63-0.33-2.47-0.33
		c-2.55,0-4.95,0.99-6.76,2.8c-1.81,1.81-2.8,4.21-2.8,6.76c0,0.42,0.04,0.83,0.09,1.24c-0.39-0.05-0.79-0.09-1.19-0.09
		c-2.6-0.04-4.98,0.97-6.79,2.78c-1.81,1.81-2.8,4.22-2.78,6.79c0.01,1.28,0.26,2.52,0.74,3.67c-2.09,0.18-4.13,1.06-5.73,2.65
		l-0.51,0.51c-3.59,3.59-3.59,9.42,0,13.01l0.84,0.84l-4.28,4.28c-5.41-1.23-11.07,0.38-15.02,4.33
		c-4.54,4.54-5.96,11.35-3.62,17.34l1.11,2.85l9.93-9.93l5.19,5.19l-9.93,9.93l2.85,1.11c1.92,0.75,3.92,1.12,5.9,1.12
		c4.21,0,8.35-1.65,11.44-4.73c3.96-3.96,5.56-9.62,4.33-15.02l4.54-4.54c1.34,0.73,2.85,1.13,4.42,1.13c0.49,0,0.97-0.05,1.45-0.12
		c0.05,0.07,0.1,0.14,0.17,0.2l11.02,11.02c3.58,3.58,9.17,3.99,13.25,1.22l8.04,8.04l-4.68,4.68l19.57,19.57
		c0.39,0.39,0.9,0.59,1.41,0.59s1.02-0.2,1.41-0.59c0.78-0.78,0.78-2.05,0-2.83l-3.42-3.42l26.57-26.57l9.09,9.09
		c0.39,0.39,0.9,0.59,1.41,0.59s1.02-0.2,1.41-0.59C206.29,292.07,206.29,290.8,205.51,290.02z M157.49,209.03l-0.54-1.25
		c-2.61-6.05-1.29-12.96,3.35-17.61c3.3-3.3,7.8-4.94,12.35-4.64l-9.91,9.91l14.86,14.86l9.91-9.91c0.3,4.54-1.34,9.05-4.64,12.35
		c-4.65,4.65-11.56,5.97-17.61,3.35l-1.25-0.54l-6.87,6.87c-0.34-0.07-0.68-0.12-1.03-0.16l0.18-0.18l-5.94-5.94L157.49,209.03z
		 M134.91,214.23c2.17-2.17,5.7-2.17,7.86,0l8.65,8.65c-1.36,0.51-2.63,1.29-3.72,2.38l-4.81,4.81l-7.98-7.98
		C132.74,219.92,132.74,216.4,134.91,214.23z M122.88,223.58c1.05-1.05,2.45-1.63,3.93-1.63c1.48,0,2.88,0.58,3.93,1.63l9.32,9.32
		l-7.86,7.86l-9.32-9.32c-1.05-1.05-1.63-2.45-1.63-3.93C121.25,226.03,121.83,224.63,122.88,223.58z M112.19,234.27
		c1.05-1.05,2.43-1.62,3.94-1.61c1.5,0.01,2.92,0.6,3.99,1.68l9.27,9.27c-1.74,1.98-2.69,4.57-2.6,7.22
		c0.07,2.32,0.9,4.48,2.35,6.24c-1.33-0.09-2.63-0.62-3.65-1.64l-10.88-10.88c0,0,0,0,0,0l-2.35-2.35
		c-1.07-1.07-1.67-2.49-1.68-3.99C110.57,236.72,111.14,235.32,112.19,234.27z M105.7,275.37c1.33,4.33,0.18,9.01-3.02,12.2
		c-2.63,2.63-6.27,3.87-9.87,3.5l8.1-8.1l-10.85-10.85l-8.1,8.1c-0.37-3.59,0.86-7.24,3.5-9.87c3.2-3.2,7.87-4.35,12.2-3.02
		l1.15,0.35l5.94-5.95l6.53,6.53l-5.95,5.94L105.7,275.37z M115.12,266.45l-11.2-11.2c-2.03-2.03-2.03-5.33,0-7.35l0.51-0.51
		c1.01-1.01,2.35-1.52,3.68-1.52c1.33,0,2.66,0.51,3.68,1.52l10.88,10.88l0.32,0.32c2.03,2.03,2.03,5.33,0,7.35l-0.51,0.51
		c-0.98,0.98-2.29,1.52-3.68,1.52C117.41,267.97,116.1,267.43,115.12,266.45z M144.82,278.77l-1.41,1.41
		c-2.54,2.54-6.64,2.56-9.14,0.06l-10.05-10.05c0.38-0.28,0.75-0.58,1.09-0.92l0.51-0.51l0,0c2.11-2.11,2.97-4.99,2.6-7.73
		c0.37,0.04,0.74,0.07,1.11,0.07c1.38,0,2.75-0.3,4.01-0.89c3.76,1.38,8.19,0.5,11.25-2.56l8.58-8.58l0.31,4.67
		c0.07,1.1,1.02,1.94,2.13,1.86c1.1-0.07,1.94-1.02,1.86-2.13L156.78,240l-14.83,14.83c-2.21,2.21-5.54,2.64-8.03,1.17l-0.5-0.5
		c-0.03,0.03-0.07,0.06-0.11,0.09c-0.11-0.08-0.22-0.17-0.33-0.26c-1.36-1.19-2.13-2.83-2.19-4.63c-0.06-1.79,0.61-3.48,1.88-4.75
		l17.86-17.86c2.5-2.5,6.58-2.5,9.08,0l8.64,8.64c5.13,5.13,5.13,13.48,0,18.61l-6.18,6.18l12.11,12.11l-17.26,17.26L144.82,278.77z
		 M165.61,308.92l-11.91-11.91l4.68-4.68l-0.04-0.04l17.26-17.26l0.04,0.04l4.64-4.64l11.91,11.91L165.61,308.92z"/>
	<path class="st1" d="M162.19,293.63c-1.86,1.86-1.86,4.9,0,6.76c0.9,0.9,2.1,1.4,3.38,1.4s2.48-0.5,3.38-1.4
		c1.86-1.86,1.86-4.9,0-6.76C167.09,291.76,164.05,291.76,162.19,293.63z M167.54,298.97c-1.05,1.05-2.88,1.05-3.93,0
		c-1.08-1.08-1.08-2.85,0-3.93c0.54-0.54,1.25-0.81,1.97-0.81s1.42,0.27,1.97,0.81C168.62,296.13,168.62,297.89,167.54,298.97z"/>
</g>
<g id="price_tag_outline">
	<path class="st2" d="M225.83,137h-50.4c-1.03-15.34-13.83-27.5-29.42-27.5s-28.39,12.16-29.42,27.5h-52.4L33,168.17V469
		c0,4.41,3.59,8,8,8h208c4.41,0,8-3.59,8-8V168.17L225.83,137z M253,469c0,2.21-1.79,4-4,4H41c-2.21,0-4-1.79-4-4V169.83L65.83,141
		h54.67v-2c0-14.06,11.44-25.5,25.5-25.5s25.5,11.44,25.5,25.5v2h52.67L253,169.83V469z"/>
	<path class="st2" d="M146,153.5c-8,0-14.5-6.5-14.5-14.5s6.5-14.5,14.5-14.5s14.5,6.5,14.5,14.5S154,153.5,146,153.5z M146,128.5
		c-5.79,0-10.5,4.71-10.5,10.5s4.71,10.5,10.5,10.5s10.5-4.71,10.5-10.5S151.79,128.5,146,128.5z"/>
</g>
<g id="string">
	<path class="st2" d="M155,101.12V108l-5.91,24.28c-0.4,1.61,0.58,3.24,2.19,3.64c0.24,0.06,0.49,0.09,0.73,0.09
		c1.35,0,2.57-0.91,2.91-2.28l5.69-22.85c0.6-2.41,0.07-4.91-1.46-6.86C157.96,102.51,156.82,101.51,155,101.12z"/>
	<path class="st2" d="M137,108v-6.84c-1.74,0.41-2.8,1.39-3.94,2.83c-1.53,1.94-2.07,4.43-1.49,6.82l5.51,22.88
		c0.39,1.61,2.01,2.6,3.62,2.21c1.61-0.39,2.6-2.01,2.21-3.62L137,108z"/>
	<path class="st2" d="M216.5,30C178.18,30,147,61.18,147,99.5v10c0,1.66,1.34,3,3,3s3-1.34,3-3v-10c0-35.01,28.49-63.5,63.5-63.5
		S280,64.49,280,99.5V245c0,1.66,1.34,3,3,3s3-1.34,3-3V99.5C286,61.18,254.82,30,216.5,30z"/>
	<path class="st2" d="M216.5,22C173.77,22,139,56.77,139,99.5v10c0,1.66,1.34,3,3,3s3-1.34,3-3v-10c0-39.43,32.07-71.5,71.5-71.5
		S288,60.07,288,99.5V258c0,1.66,1.34,3,3,3s3-1.34,3-3V99.5C294,56.77,259.23,22,216.5,22z"/>
</g>
<g id="_x7B__x7B_ta:middle_x7D__x7D__00000003080065224974911030000009224034769790341250_">
	<g id="_x7B__x7B__x23_0_x7D__x7D_">
		<text transform="matrix(1 0 0 1 62 425.5219)" class="st3 st4 st5">{{#0|c}}</text>
	</g>
</g>
<text transform="matrix(1 0 0 1 71.6172 345.3447)"><tspan x="0" y="0" class="st1 st6 st7 st8">T</tspan><tspan x="10.11" y="0" class="st1 st6 st7">otal Labor Cost</tspan></text>
<linearGradient id="shine_00000146465373846258181970000017942342141903756418_" gradientUnits="userSpaceOnUse" x1="46.0757" y1="184.2475" x2="151.2797" y2="289.2271">
	<stop  offset="0" style="stop-color:#FFFFFF"/>
	<stop  offset="1" style="stop-color:#FFFFFF;stop-opacity:0.3"/>
</linearGradient>
<path id="shine_00000049192913335818573880000002099318800031931063_" style="opacity:0.3;fill:url(#shine_00000146465373846258181970000017942342141903756418_);" d="
	M220.03,151h-51.54c-4.3,8.03-12.77,13.5-22.49,13.5s-18.19-5.47-22.49-13.5H70l-23,22.97V392l196-199v-19.03L220.03,151z"/>
</svg>
