<?xml version="1.0" encoding="utf-8"?>
<!-- Generator: Adobe Illustrator 26.0.1, SVG Export Plug-In . SVG Version: 6.00 Build 0)  -->
<svg version="1.1" id="TotalClaimCount_x5F_KeyValue"
	 xmlns="http://www.w3.org/2000/svg" xmlns:xlink="http://www.w3.org/1999/xlink" x="0px" y="0px" viewBox="0 0 320 460"
	 style="enable-background:new 0 0 320 460;" xml:space="preserve">
<style type="text/css">
	.st0{fill:#A0A0A0;}
	.st1{fill:#0293A0;}
	.st2{fill:#FFFFFF;}
	.st3{fill:#01929F;}
	.st4{font-family:'Roboto-Bold';}
	.st5{font-size:50px;}
	.st6{font-family:'Roboto-Medium';}
	.st7{font-size:24px;}
	.st8{letter-spacing:-2;}
	.st9{font-family:'Roboto-Regular';}
	.st10{font-size:18px;}
	.st11{opacity:0.3;fill:url(#shine_00000134246770383208343660000014125244834898188938_);}
</style>
<path id="pen" class="st0" d="M290,402h-4v-2.44L260.32,391H47c-2.76,0-5,2.24-5,5H32c-2.21,0-4,1.79-4,4v7c0,2.21,1.79,4,4,4h10
	c0,2.76,2.24,5,5,5h2v6c0,3.86,3.14,7,7,7h111c2.76,0,5-2.24,5-5s-2.24-5-5-5H68v-3h192.29l25.71-7.5V406h4c1.1,0,2-0.9,2-2
	S291.1,402,290,402z M259,412H72v-17h187V412z M32,407v-7h12v7H32z M167,423c0.55,0,1,0.45,1,1s-0.45,1-1,1H56c-1.65,0-3-1.35-3-3
	v-8h11v9H167z M47,412c-0.55,0-1-0.45-1-1v-15c0-0.55,0.45-1,1-1h23v17H47z M282,405.5l-21,6.12v-16.18l21,7V405.5z"/>
<path id="colored_background_00000180344498388928019860000009480335990345796229_" class="st1" d="M40,46v322h220v-5H45v-90h230v75
	h5V46H40z M116.6,101.68c0,13.25-9.52,24.64-26.82,32.07l-1.18,0.51l-1.18-0.51c-17.29-7.43-26.82-18.82-26.82-32.07V73.99h3
	c10.31,0,17.09-2.95,22.66-9.87l2.34-2.9l2.34,2.9c5.58,6.92,12.35,9.87,22.66,9.87h3V101.68z"/>
<g>
	<path class="st1" d="M88.6,132.09l-0.4-0.17c-16.51-7.1-25.6-17.84-25.6-30.24V75.99h1c10.98,0,18.22-3.18,24.22-10.62l0.78-0.97
		l0.78,0.97c6,7.44,13.24,10.62,24.22,10.62h1v25.69c0,12.4-9.09,23.14-25.6,30.24L88.6,132.09z M64.6,77.98v23.7
		c0,15.36,14.85,24.23,24,28.23c9.15-4,24-12.87,24-28.23v-23.7c-10.5-0.19-17.98-3.44-24-10.42C82.58,74.55,75.1,77.79,64.6,77.98z
		"/>
</g>
<g id="lines">
	<path class="st2" d="M165,212H62c-0.55,0-1,0.45-1,1s0.45,1,1,1h103c0.55,0,1-0.45,1-1S165.55,212,165,212z"/>
	<path class="st2" d="M255,200H62c-0.55,0-1,0.45-1,1s0.45,1,1,1h193c0.55,0,1-0.45,1-1S255.55,200,255,200z"/>
	<path class="st2" d="M255,188H62c-0.55,0-1,0.45-1,1s0.45,1,1,1h193c0.55,0,1-0.45,1-1S255.55,188,255,188z"/>
	<path class="st2" d="M255,176H62c-0.55,0-1,0.45-1,1s0.45,1,1,1h193c0.55,0,1-0.45,1-1S255.55,176,255,176z"/>
	<path class="st2" d="M255,164H62c-0.55,0-1,0.45-1,1s0.45,1,1,1h193c0.55,0,1-0.45,1-1S255.55,164,255,164z"/>
	<path class="st2" d="M255,152H62c-0.55,0-1,0.45-1,1s0.45,1,1,1h193c0.55,0,1-0.45,1-1S255.55,152,255,152z"/>
	<path class="st2" d="M255,140H113c-0.55,0-1,0.45-1,1s0.45,1,1,1h142c0.55,0,1-0.45,1-1S255.55,140,255,140z"/>
	<path class="st2" d="M255,128H129c-0.55,0-1,0.45-1,1s0.45,1,1,1h126c0.55,0,1-0.45,1-1S255.55,128,255,128z"/>
	<path class="st2" d="M255,116H138c-0.55,0-1,0.45-1,1s0.45,1,1,1h117c0.55,0,1-0.45,1-1S255.55,116,255,116z"/>
	<path class="st2" d="M255,104H140c-0.55,0-1,0.45-1,1s0.45,1,1,1h115c0.55,0,1-0.45,1-1S255.55,104,255,104z"/>
	<path class="st2" d="M140,94h115c0.55,0,1-0.45,1-1s-0.45-1-1-1H140c-0.55,0-1,0.45-1,1S139.45,94,140,94z"/>
</g>
<path class="st0" d="M28,34v346h232.83L292,348.83V34H28z M32,38h256v309h-29v29H32V38z M286.17,349L261,374.17V349H286.17z"/>
<g id="_x7B__x7B_ta:middle_x7D__x7D_">
	<g id="_x7B__x7B__x23_0_x7D__x7D__00000106108290034889438490000010890467018255510964_">
		<text transform="matrix(1 0 0 1 76 335.5219)" class="st3 st4 st5">{{#0|c}}</text>
	</g>
</g>
<g>
	<text transform="matrix(1 0 0 1 65.6865 262.3447)"><tspan x="0" y="0" class="st2 st6 st7 st8">T</tspan><tspan x="12.13" y="0" class="st2 st6 st7">otal Claim Count</tspan></text>
</g>
<g>
	<text transform="matrix(1 0 0 1 138 79.4961)"><tspan x="0" y="0" class="st2 st9 st10">C</tspan><tspan x="11.72" y="0" class="st2 st9 st10">L</tspan><tspan x="22.06" y="0" class="st2 st9 st10">A</tspan><tspan x="33.88" y="0" class="st2 st9 st10">I</tspan><tspan x="38.71" y="0" class="st2 st9 st10">M </tspan><tspan x="58.88" y="0" class="st2 st9 st10">F</tspan><tspan x="68.75" y="0" class="st2 st9 st10">I</tspan><tspan x="73.59" y="0" class="st2 st9 st10">L</tspan><tspan x="83.31" y="0" class="st2 st9 st10">E</tspan></text>
</g>
<linearGradient id="shine_00000170985737726184712800000014083087924622566042_" gradientUnits="userSpaceOnUse" x1="161.7892" y1="188.8436" x2="37.2874" y2="81.9683">
	<stop  offset="0" style="stop-color:#FFFFFF;stop-opacity:0.3"/>
	<stop  offset="1" style="stop-color:#FFFFFF"/>
</linearGradient>
<polygon id="shine_00000178903382305391046940000014283789407745432474_" style="opacity:0.3;fill:url(#shine_00000170985737726184712800000014083087924622566042_);" points="
	40,328.62 40,46 280,46 280,71 "/>
</svg>
