<?xml version="1.0" encoding="utf-8"?>
<!-- Generator: Adobe Illustrator 26.0.1, SVG Export Plug-In . SVG Version: 6.00 Build 0)  -->
<svg version="1.1" id="TotalClaimCount_x5F_KeyValue"
	 xmlns="http://www.w3.org/2000/svg" xmlns:xlink="http://www.w3.org/1999/xlink" x="0px" y="0px" viewBox="0 0 320 460"
	 style="enable-background:new 0 0 320 460;" xml:space="preserve">
<style type="text/css">
	.st0{fill:#A0A0A0;}
	.st1{fill:#0293A0;}
	.st2{fill:#FFFFFF;}
	.st3{fill:#01929F;}
	.st4{font-family:'Roboto-Bold';}
	.st5{font-size:50px;}
	.st6{font-family:'Roboto-Medium';}
	.st7{font-size:24px;}
	.st8{letter-spacing:-2;}
	.st9{font-family:'Roboto-Regular';}
	.st10{font-size:16px;}
	.st11{opacity:0.3;fill:url(#shine_00000116234367404640633590000018000274893446879931_);}
</style>
<path id="pen_00000046327032887550679610000010739904521823336320_" class="st0" d="M280,394h-4v-2.44L250.32,383H57
	c-2.76,0-5,2.24-5,5H42c-2.21,0-4,1.79-4,4v7c0,2.21,1.79,4,4,4h10c0,2.76,2.24,5,5,5h2v6c0,3.86,3.14,7,7,7h106c2.76,0,5-2.24,5-5
	s-2.24-5-5-5H78v-3h172.29l25.71-7.5V398h4c1.1,0,2-0.9,2-2S281.1,394,280,394z M249,404H82v-17h167V404z M42,399v-7h12v7H42z
	 M172,415c0.55,0,1,0.45,1,1s-0.45,1-1,1H66c-1.65,0-3-1.35-3-3v-8h11v9H172z M57,404c-0.55,0-1-0.45-1-1v-15c0-0.55,0.45-1,1-1h23
	v17H57z M272,397.5l-21,6.12v-16.18l21,7V397.5z"/>
<path id="colored_background_00000022518308959999409290000000109269336357569155_" class="st1" d="M50,56v304h200v-5H55v-90h210v75
	h5V56H50z M121.6,108.68c0,13.25-9.52,24.64-26.82,32.07l-1.18,0.51l-1.18-0.51c-17.29-7.43-26.82-18.82-26.82-32.07V80.99h3
	c10.31,0,17.09-2.95,22.66-9.87l2.34-2.9l2.34,2.9c5.58,6.92,12.35,9.87,22.66,9.87h3V108.68z"/>
<g id="shield_00000121969415015371265700000008444672012832039558_">
	<path class="st1" d="M93.6,139.09l-0.4-0.17c-16.51-7.1-25.6-17.84-25.6-30.24V82.99h1c10.98,0,18.22-3.18,24.22-10.62l0.78-0.97
		l0.78,0.97c6,7.44,13.24,10.62,24.22,10.62h1v25.69c0,12.4-9.09,23.14-25.6,30.24L93.6,139.09z M69.6,84.98v23.7
		c0,15.36,14.85,24.23,24,28.23c9.15-4,24-12.87,24-28.23v-23.7c-10.5-0.19-17.98-3.44-24-10.42C87.58,81.55,80.1,84.79,69.6,84.98z
		"/>
</g>
<g id="lines_00000142164081807146716850000010995291454725586326_">
	<path class="st2" d="M160,219H67c-0.55,0-1,0.45-1,1s0.45,1,1,1h93c0.55,0,1-0.45,1-1S160.55,219,160,219z"/>
	<path class="st2" d="M253,207H67c-0.55,0-1,0.45-1,1s0.45,1,1,1h186c0.55,0,1-0.45,1-1S253.55,207,253,207z"/>
	<path class="st2" d="M253,195H67c-0.55,0-1,0.45-1,1s0.45,1,1,1h186c0.55,0,1-0.45,1-1S253.55,195,253,195z"/>
	<path class="st2" d="M253,183H67c-0.55,0-1,0.45-1,1s0.45,1,1,1h186c0.55,0,1-0.45,1-1S253.55,183,253,183z"/>
	<path class="st2" d="M253,171H67c-0.55,0-1,0.45-1,1s0.45,1,1,1h186c0.55,0,1-0.45,1-1S253.55,171,253,171z"/>
	<path class="st2" d="M253,159H67c-0.55,0-1,0.45-1,1s0.45,1,1,1h186c0.55,0,1-0.45,1-1S253.55,159,253,159z"/>
	<path class="st2" d="M253,147H118c-0.55,0-1,0.45-1,1s0.45,1,1,1h135c0.55,0,1-0.45,1-1S253.55,147,253,147z"/>
	<path class="st2" d="M253,135H134c-0.55,0-1,0.45-1,1s0.45,1,1,1h119c0.55,0,1-0.45,1-1S253.55,135,253,135z"/>
	<path class="st2" d="M253,123H143c-0.55,0-1,0.45-1,1s0.45,1,1,1h110c0.55,0,1-0.45,1-1S253.55,123,253,123z"/>
	<path class="st2" d="M253,111H145c-0.55,0-1,0.45-1,1s0.45,1,1,1h108c0.55,0,1-0.45,1-1S253.55,111,253,111z"/>
	<path class="st2" d="M145,101h108c0.55,0,1-0.45,1-1s-0.45-1-1-1H145c-0.55,0-1,0.45-1,1S144.45,101,145,101z"/>
</g>
<path id="outline_00000004529060544174205140000006376573770366695808_" class="st0" d="M38,44v328h212.83L282,340.83V44H38z M42,48
	h236v291h-29v29H42V48z M276.17,341L251,366.17V341H276.17z"/>
<g id="_x7B__x7B_ta:middle_x7D__x7D_">
	<g id="_x7B__x7B__x23_0_x7C_c_x7D__x7D_">
		<text transform="matrix(1 0 0 1 72 327.5219)" class="st3 st4 st5">{{#0|c}}</text>
	</g>
</g>
<g>
	<text transform="matrix(1 0 0 1 64.6865 254.3447)"><tspan x="0" y="0" class="st2 st6 st7 st8">T</tspan><tspan x="12.13" y="0" class="st2 st6 st7">otal Claim Count</tspan></text>
</g>
<g>
	<text transform="matrix(1 0 0 1 143 86.4961)"><tspan x="0" y="0" class="st2 st9 st10">C</tspan><tspan x="10.41" y="0" class="st2 st9 st10">L</tspan><tspan x="19.17" y="0" class="st2 st9 st10">AIM FILE</tspan></text>
</g>
<linearGradient id="shine_00000121267285485014912750000004204610988991898559_" gradientUnits="userSpaceOnUse" x1="165.4855" y1="190.0165" x2="48.0547" y2="89.2111">
	<stop  offset="0" style="stop-color:#FFFFFF;stop-opacity:0.3"/>
	<stop  offset="1" style="stop-color:#FFFFFF"/>
</linearGradient>
<polygon id="shine_00000039094657218915356210000012893133227716162695_" style="opacity:0.3;fill:url(#shine_00000121267285485014912750000004204610988991898559_);" points="
	50,314.62 50,56 270,56 270,87 "/>
</svg>
