<?xml version="1.0" encoding="utf-8"?>
<!-- Generator: Adobe Illustrator 26.0.1, SVG Export Plug-In . SVG Version: 6.00 Build 0)  -->
<svg version="1.1" id="TotalClaimCount_x5F_KeyValue"
	 xmlns="http://www.w3.org/2000/svg" xmlns:xlink="http://www.w3.org/1999/xlink" x="0px" y="0px" viewBox="0 0 320 460"
	 style="enable-background:new 0 0 320 460;" xml:space="preserve">
<style type="text/css">
	.st0{fill:#A0A0A0;}
	.st1{fill:#0293A0;}
	.st2{fill:#FFFFFF;}
	.st3{fill:#01929F;}
	.st4{font-family:'Roboto-Bold';}
	.st5{font-size:50px;}
	.st6{font-family:'Roboto-Medium';}
	.st7{font-size:24px;}
	.st8{letter-spacing:-2;}
	.st9{font-family:'Roboto-Regular';}
	.st10{font-size:18px;}
	.st11{opacity:0.3;fill:url(#shine_00000043440419316794757140000013833722182530557375_);}
</style>
<path id="pen_00000094605385826061475610000012575106419574839440_" class="st0" d="M285,399h-4v-2.44L255.32,388H52
	c-2.76,0-5,2.24-5,5H37c-2.21,0-4,1.79-4,4v7c0,2.21,1.79,4,4,4h10c0,2.76,2.24,5,5,5h2v6c0,3.86,3.14,7,7,7h111c2.76,0,5-2.24,5-5
	s-2.24-5-5-5H73v-3h182.29l25.71-7.5V403h4c1.1,0,2-0.9,2-2S286.1,399,285,399z M254,409H77v-17h177V409z M37,404v-7h12v7H37z
	 M172,420c0.55,0,1,0.45,1,1s-0.45,1-1,1H61c-1.65,0-3-1.35-3-3v-8h11v9H172z M52,409c-0.55,0-1-0.45-1-1v-15c0-0.55,0.45-1,1-1h23
	v17H52z M277,402.5l-21,6.12v-16.18l21,7V402.5z"/>
<path id="colored_background_00000035499280916291187270000009756648881649768835_" class="st1" d="M45,53v312h210v-5H50v-90h220v75
	h5V53H45z M121.6,108.68c0,13.25-9.52,24.64-26.82,32.07l-1.18,0.51l-1.18-0.51c-17.29-7.43-26.82-18.82-26.82-32.07V80.99h3
	c10.31,0,17.09-2.95,22.66-9.87l2.34-2.9l2.34,2.9c5.58,6.92,12.35,9.87,22.66,9.87h3V108.68z"/>
<g id="shield_00000181770072328571773300000010284607038891999414_">
	<path class="st1" d="M93.6,139.09l-0.4-0.17c-16.51-7.1-25.6-17.84-25.6-30.24V82.99h1c10.98,0,18.22-3.18,24.22-10.62l0.78-0.97
		l0.78,0.97c6,7.44,13.24,10.62,24.22,10.62h1v25.69c0,12.4-9.09,23.14-25.6,30.24L93.6,139.09z M69.6,84.98v23.7
		c0,15.36,14.85,24.23,24,28.23c9.15-4,24-12.87,24-28.23v-23.7c-10.5-0.19-17.98-3.44-24-10.42C87.58,81.55,80.1,84.79,69.6,84.98z
		"/>
</g>
<g id="lines_00000033364178361616493530000005461888113196516483_">
	<path class="st2" d="M165,219H67c-0.55,0-1,0.45-1,1s0.45,1,1,1h98c0.55,0,1-0.45,1-1S165.55,219,165,219z"/>
	<path class="st2" d="M250,207H67c-0.55,0-1,0.45-1,1s0.45,1,1,1h183c0.55,0,1-0.45,1-1S250.55,207,250,207z"/>
	<path class="st2" d="M250,195H67c-0.55,0-1,0.45-1,1s0.45,1,1,1h183c0.55,0,1-0.45,1-1S250.55,195,250,195z"/>
	<path class="st2" d="M250,183H67c-0.55,0-1,0.45-1,1s0.45,1,1,1h183c0.55,0,1-0.45,1-1S250.55,183,250,183z"/>
	<path class="st2" d="M250,171H67c-0.55,0-1,0.45-1,1s0.45,1,1,1h183c0.55,0,1-0.45,1-1S250.55,171,250,171z"/>
	<path class="st2" d="M250,159H67c-0.55,0-1,0.45-1,1s0.45,1,1,1h183c0.55,0,1-0.45,1-1S250.55,159,250,159z"/>
	<path class="st2" d="M250,147H118c-0.55,0-1,0.45-1,1s0.45,1,1,1h132c0.55,0,1-0.45,1-1S250.55,147,250,147z"/>
	<path class="st2" d="M250,135H134c-0.55,0-1,0.45-1,1s0.45,1,1,1h116c0.55,0,1-0.45,1-1S250.55,135,250,135z"/>
	<path class="st2" d="M250,123H143c-0.55,0-1,0.45-1,1s0.45,1,1,1h107c0.55,0,1-0.45,1-1S250.55,123,250,123z"/>
	<path class="st2" d="M250,111H145c-0.55,0-1,0.45-1,1s0.45,1,1,1h105c0.55,0,1-0.45,1-1S250.55,111,250,111z"/>
	<path class="st2" d="M145,101h105c0.55,0,1-0.45,1-1s-0.45-1-1-1H145c-0.55,0-1,0.45-1,1S144.45,101,145,101z"/>
</g>
<path id="outline_00000083794666637509338190000015070563935243179699_" class="st0" d="M33,41v336h222.83L287,345.83V41H33z M37,45
	h246v299h-29v29H37V45z M281.17,346L256,371.17V346H281.17z"/>
<g id="_x7B__x7B_ta:middle_x7D__x7D_">
	<g id="_x7B__x7B__x23_0_x7C_c_x7D__x7D_">
		<text transform="matrix(1 0 0 1 72 332.5219)" class="st3 st4 st5">{{#0|c}}</text>
	</g>
</g>
<g>
	<text transform="matrix(1 0 0 1 65.6865 259.3447)"><tspan x="0" y="0" class="st2 st6 st7 st8">T</tspan><tspan x="12.13" y="0" class="st2 st6 st7">otal Claim Count</tspan></text>
</g>
<g>
	<text transform="matrix(1 0 0 1 143 86.4961)"><tspan x="0" y="0" class="st2 st9 st10">C</tspan><tspan x="11.72" y="0" class="st2 st9 st10">L</tspan><tspan x="21.57" y="0" class="st2 st9 st10">AIM FILE</tspan></text>
</g>
<linearGradient id="shine_00000099648132027022485650000007946104105834264726_" gradientUnits="userSpaceOnUse" x1="161.7571" y1="190.816" x2="42.0171" y2="88.0283">
	<stop  offset="0" style="stop-color:#FFFFFF;stop-opacity:0.3"/>
	<stop  offset="1" style="stop-color:#FFFFFF"/>
</linearGradient>
<polygon id="shine_00000166661384065485962340000004019122676316808101_" style="opacity:0.3;fill:url(#shine_00000099648132027022485650000007946104105834264726_);" points="
	45,325.62 45,53 275,53 275,78 "/>
</svg>
