<?xml version="1.0" encoding="utf-8"?>
<!-- Generator: Adobe Illustrator 26.0.1, SVG Export Plug-In . SVG Version: 6.00 Build 0)  -->
<svg version="1.1" id="WarrantyCost_x5F_KeyValue" xmlns="http://www.w3.org/2000/svg" xmlns:xlink="http://www.w3.org/1999/xlink"
	 x="0px" y="0px" viewBox="0 0 320 500" style="enable-background:new 0 0 320 500;" xml:space="preserve">
<style type="text/css">
	.st0{fill:url(#colored_background_00000043444147010467880990000014346000004688711098_);}
	.st1{fill:#FFFFFF;}
	.st2{fill:#A0A0A0;}
	.st3{fill:#01929F;}
	.st4{font-family:'Roboto-Bold';}
	.st5{font-size:50px;}
	.st6{font-family:'Roboto-Medium';}
	.st7{font-size:20px;}
	.st8{letter-spacing:-2;}
	.st9{opacity:0.3;fill:url(#shine_00000129922298419487667710000013538241205598661253_);}
</style>
<linearGradient id="colored_background_00000007395490737818468230000012603285749286298249_" gradientUnits="userSpaceOnUse" x1="145" y1="463" x2="145" y2="151">
	<stop  offset="1.574796e-03" style="stop-color:#0293A0"/>
	<stop  offset="1" style="stop-color:#01929F"/>
</linearGradient>
<path id="colored_background" style="fill:url(#colored_background_00000007395490737818468230000012603285749286298249_);" d="
	M220.03,151h-51.54c-4.3,8.03-12.77,13.5-22.49,13.5s-18.19-5.47-22.49-13.5H69.97L47,173.97V463h196V173.97L220.03,151z"/>
<rect id="value_string_background" x="52" y="358" class="st1" width="186" height="100"/>
<g id="icon_00000161590025775086715140000001534610753238717368_">
	<path id="shock" class="st1" d="M99,249c1.1,0,2-0.9,2-2s-0.9-2-2-2h-2v-2h2c1.1,0,2-0.9,2-2s-0.9-2-2-2h-2v-3h2v-29
		c0-2.76-2.24-5-5-5h-1.9c2.9-1.5,4.9-4.52,4.9-8c0-4.96-4.04-9-9-9s-9,4.04-9,9c0,3.48,1.99,6.5,4.9,8H82c-2.76,0-5,2.24-5,5v29h2
		v3h-2c-1.1,0-2,0.9-2,2s0.9,2,2,2h2v2h-2c-1.1,0-2,0.9-2,2s0.9,2,2,2h2v2h-2c-1.1,0-2,0.9-2,2s0.9,2,2,2h2v2h-2c-1.1,0-2,0.9-2,2
		s0.9,2,2,2h2v23c0,2.73,2.2,4.94,4.91,4.99C81,290.48,79,293.51,79,297c0,4.96,4.04,9,9,9s9-4.04,9-9c0-3.49-2-6.52-4.91-8.01
		C94.8,288.94,97,286.73,97,284v-23h2c1.1,0,2-0.9,2-2s-0.9-2-2-2h-2v-2h2c1.1,0,2-0.9,2-2s-0.9-2-2-2h-2v-2H99z M88,189
		c2.76,0,5,2.24,5,5s-2.24,5-5,5s-5-2.24-5-5S85.24,189,88,189z M81,207c0-0.55,0.45-1,1-1h12c0.55,0,1,0.45,1,1v25H81V207z M83,234
		h10v5H83V234z M83,243h10v2H83V243z M88,302c-2.76,0-5-2.24-5-5s2.24-5,5-5s5,2.24,5,5S90.76,302,88,302z M93,284
		c0,0.55-0.45,1-1,1h-8c-0.55,0-1-0.45-1-1v-23h10V284z M93,257H83v-2h10V257z M93,251H83v-2h10V251z"/>
	<g id="plug">
		<path class="st1" d="M215,196c-0.55,0-1,0.45-1,1v4h-2v-6c0-2.21-1.79-4-4-4h-9v-1c0-2.76-2.24-5-5-5h-16v6h-24v18h24v6h16
			c2.76,0,5-2.24,5-5v-1h9c2.21,0,4-1.79,4-4v-2h3c0.55,0,1-0.45,1-1v-5C216,196.45,215.55,196,215,196z M158,205v-10h22v10H158z
			 M195,210c0,0.55-0.45,1-1,1h-12v-22h12c0.55,0,1,0.45,1,1V210z M208,205h-11v-10h11V205z"/>
		<path class="st1" d="M140,192c-0.55,0-1,0.45-1,1v14c0,0.55,0.45,1,1,1s1-0.45,1-1v-14C141,192.45,140.55,192,140,192z"/>
		<path class="st1" d="M145,192c-0.55,0-1,0.45-1,1v14c0,0.55,0.45,1,1,1s1-0.45,1-1v-14C146,192.45,145.55,192,145,192z"/>
		<path class="st1" d="M150,192c-0.55,0-1,0.45-1,1v14c0,0.55,0.45,1,1,1s1-0.45,1-1v-14C151,192.45,150.55,192,150,192z"/>
		<path class="st1" d="M125,194h-0.83c-3.16,0-5.85,2.38-6.14,5.42c-0.16,1.69,0.4,3.37,1.53,4.62c1.14,1.25,2.75,1.96,4.44,1.96h1
			c0,1.65,1.35,3,3,3h8v-18h-8C126.35,191,125,192.35,125,194z M124,202c-0.57,0-1.1-0.23-1.48-0.66c-0.38-0.42-0.56-0.97-0.51-1.55
			c0.1-1.01,1.05-1.8,2.16-1.8H127v4H124z M129,195h3v10h-3V195z"/>
	</g>
	<g id="battery">
		<path class="st1" d="M216,251v-10c0-2.21-1.79-4-4-4h-13v-6c0-1.1-0.9-2-2-2h-6c-1.1,0-2,0.9-2,2v6h-44v-6c0-1.1-0.9-2-2-2h-6
			c-1.1,0-2,0.9-2,2v6h-13c-2.21,0-4,1.79-4,4v10h5v40h-1c-2.21,0-4,1.79-4,4v10h98v-10c0-2.21-1.79-4-4-4h-1v-40H216z M212,295v6
			h-90v-6H212z M207,293h-80v-44h80V293z M122,247v-6h90v6H122z"/>
		<path class="st1" d="M135,264h10c0.55,0,1-0.45,1-1s-0.45-1-1-1h-10c-0.55,0-1,0.45-1,1S134.45,264,135,264z"/>
		<path class="st1" d="M189,264h4v4c0,0.55,0.45,1,1,1s1-0.45,1-1v-4h4c0.55,0,1-0.45,1-1s-0.45-1-1-1h-4v-4c0-0.55-0.45-1-1-1
			s-1,0.45-1,1v4h-4c-0.55,0-1,0.45-1,1S188.45,264,189,264z"/>
	</g>
</g>
<g id="price_tag_outline">
	<path class="st2" d="M225.83,137h-50.4c-1.03-15.34-13.83-27.5-29.42-27.5s-28.39,12.16-29.42,27.5h-52.4L33,168.17V469
		c0,4.41,3.59,8,8,8h208c4.41,0,8-3.59,8-8V168.17L225.83,137z M253,469c0,2.21-1.79,4-4,4H41c-2.21,0-4-1.79-4-4V169.83L65.83,141
		h54.67v-2c0-14.06,11.44-25.5,25.5-25.5s25.5,11.44,25.5,25.5v2h52.67L253,169.83V469z"/>
	<path class="st2" d="M146,153.5c-8,0-14.5-6.5-14.5-14.5s6.5-14.5,14.5-14.5s14.5,6.5,14.5,14.5S154,153.5,146,153.5z M146,128.5
		c-5.79,0-10.5,4.71-10.5,10.5s4.71,10.5,10.5,10.5s10.5-4.71,10.5-10.5S151.79,128.5,146,128.5z"/>
</g>
<g id="string">
	<path class="st2" d="M155,101.12V108l-5.91,24.28c-0.4,1.61,0.58,3.24,2.19,3.64c0.24,0.06,0.49,0.09,0.73,0.09
		c1.35,0,2.57-0.91,2.91-2.28l5.69-22.85c0.6-2.41,0.07-4.91-1.46-6.86C157.96,102.51,156.82,101.51,155,101.12z"/>
	<path class="st2" d="M137,108v-6.84c-1.74,0.41-2.8,1.39-3.94,2.83c-1.53,1.94-2.07,4.43-1.49,6.82l5.51,22.88
		c0.39,1.61,2.01,2.6,3.62,2.21c1.61-0.39,2.6-2.01,2.21-3.62L137,108z"/>
	<path class="st2" d="M216.5,30C178.18,30,147,61.18,147,99.5v10c0,1.66,1.34,3,3,3s3-1.34,3-3v-10c0-35.01,28.49-63.5,63.5-63.5
		S280,64.49,280,99.5V245c0,1.66,1.34,3,3,3s3-1.34,3-3V99.5C286,61.18,254.82,30,216.5,30z"/>
	<path class="st2" d="M216.5,22C173.77,22,139,56.77,139,99.5v10c0,1.66,1.34,3,3,3s3-1.34,3-3v-10c0-39.43,32.07-71.5,71.5-71.5
		S288,60.07,288,99.5V258c0,1.66,1.34,3,3,3s3-1.34,3-3V99.5C294,56.77,259.23,22,216.5,22z"/>
</g>
<g id="_x7B__x7B_ta:middle_x7D__x7D__00000003080065224974911030000009224034769790341250_">
	<g id="_x7B__x7B__x23_0_x7D__x7D_">
		<text transform="matrix(1 0 0 1 62 425.5219)" class="st3 st4 st5">{{#0|c}}</text>
	</g>
</g>
<text transform="matrix(1 0 0 1 73.2822 345.3447)"><tspan x="0" y="0" class="st1 st6 st7 st8">T</tspan><tspan x="10.11" y="0" class="st1 st6 st7">otal </tspan><tspan x="49.05" y="0" class="st1 st6 st7">P</tspan><tspan x="61.73" y="0" class="st1 st6 st7">a</tspan><tspan x="72.55" y="0" class="st1 st6 st7">r</tspan><tspan x="80.07" y="0" class="st1 st6 st7">ts Cost</tspan></text>
<linearGradient id="shine_00000073723633901170275650000014624542211221128872_" gradientUnits="userSpaceOnUse" x1="46.0757" y1="184.2475" x2="151.2797" y2="289.2271">
	<stop  offset="0" style="stop-color:#FFFFFF"/>
	<stop  offset="1" style="stop-color:#FFFFFF;stop-opacity:0.3"/>
</linearGradient>
<path id="shine_00000049192913335818573880000002099318800031931063_" style="opacity:0.3;fill:url(#shine_00000073723633901170275650000014624542211221128872_);" d="
	M220.03,151h-51.54c-4.3,8.03-12.77,13.5-22.49,13.5s-18.19-5.47-22.49-13.5H70l-23,22.97V392l196-199v-19.03L220.03,151z"/>
</svg>
