<?xml version="1.0" encoding="utf-8"?>
<!-- Generator: Adobe Illustrator 26.0.1, SVG Export Plug-In . SVG Version: 6.00 Build 0)  -->
<svg version="1.1" id="TotalClaimCount_x5F_Gauge" xmlns="http://www.w3.org/2000/svg" xmlns:xlink="http://www.w3.org/1999/xlink"
	 x="0px" y="0px" viewBox="0 0 440 540" style="enable-background:new 0 0 440 540;" xml:space="preserve">
<style type="text/css">
	.st0{fill:#1D1D1D;}
	.st1{font-family:'Roboto-Medium';}
	.st2{font-size:26px;}
	.st3{letter-spacing:-2;}
	.st4{fill:#A0A0A0;}
	.st5{opacity:0.2;}
	.st6{fill:none;stroke:#000000;stroke-width:2;stroke-miterlimit:10;stroke-dasharray:3,2;}
	.st7{filter:url(#Adobe_OpacityMaskFilter);}
	.st8{fill:#FFFFFF;}
	.st9{mask:url(#bar_00000149372059707090871230000013426935470169939336_);fill:#0293A0;}
	.st10{fill:none;stroke:#FFFFFF;stroke-width:2;stroke-miterlimit:10;stroke-dasharray:3,2;}
	.st11{opacity:0.3;fill:url(#shine_00000052101472375516625760000007121490218177636779_);}
	.st12{fill:#696969;}
	.st13{font-family:'Roboto-Regular';}
	.st14{font-size:24px;}
	.st15{fill:none;}
	.st16{fill:#01929F;}
	.st17{font-family:'Roboto-Bold';}
	.st18{font-size:50px;}
</style>
<g>
	<text transform="matrix(1 0 0 1 123.7432 497.9539)"><tspan x="0" y="0" class="st0 st1 st2 st3">T</tspan><tspan x="13.14" y="0" class="st0 st1 st2">otal Claim Count</tspan></text>
</g>
<g id="icon_00000049919425245807034810000003409910442294599853_">
	<path id="outlines" class="st4" d="M260,442v-71c0-9.37-7.63-17-17-17h-3.01l-1.33,4H243c7.17,0,13,5.83,13,13v73H156v1
		c0,6.62-5.38,12-12,12c-7.17,0-13-5.83-13-13v-73c0-5.56-3.05-10.41-7.55-13h82.43l-1.21-4H116c-9.37,0-17,7.63-17,17v2h28v71
		c0,9.37,7.63,17,17,17h129c9.37,0,17-7.63,17-17v-2H260z M128.83,369h-25.67c0.96-6.22,6.36-11,12.85-11
		C122.49,358,127.86,362.78,128.83,369L128.83,369z M273,457H151.18c3.81-2.29,6.45-6.33,6.78-11h127.88
		C284.88,452.22,279.49,457,273,457z"/>
	<g id="lines">
		<path class="st4" d="M201,428h-55c-0.55,0-1,0.45-1,1s0.45,1,1,1h55c0.55,0,1-0.45,1-1S201.55,428,201,428z"/>
		<path class="st4" d="M240,419h-94c-0.55,0-1,0.45-1,1s0.45,1,1,1h94c0.55,0,1-0.45,1-1S240.55,419,240,419z"/>
		<path class="st4" d="M181,385h35.35c-0.22-0.63-0.35-1.3-0.35-2h-35c-0.55,0-1,0.45-1,1S180.45,385,181,385z"/>
		<path class="st4" d="M181,376h30.34l-0.61-2H181c-0.55,0-1,0.45-1,1S180.45,376,181,376z"/>
		<path class="st4" d="M240,401h-64c-0.55,0-1,0.45-1,1s0.45,1,1,1h64c0.55,0,1-0.45,1-1S240.55,401,240,401z"/>
		<path class="st4" d="M240,383h-12c0,0.7-0.13,1.37-0.35,2H240c0.55,0,1-0.45,1-1S240.55,383,240,383z"/>
		<path class="st4" d="M240,374h-6.68l-0.67,2H240c0.55,0,1-0.45,1-1S240.55,374,240,374z"/>
		<path class="st4" d="M240,410h-94c-0.55,0-1,0.45-1,1s0.45,1,1,1h94c0.55,0,1-0.45,1-1S240.55,410,240,410z"/>
		<path class="st4" d="M240,392h-59c-0.55,0-1,0.45-1,1s0.45,1,1,1h59c0.55,0,1-0.45,1-1S240.55,392,240,392z"/>
	</g>
	<g id="shield">
		<path class="st4" d="M150.5,379.21v8.5c0,5.18,4.94,8.46,8.5,10.15c3.56-1.69,8.5-4.98,8.5-10.15v-8.5
			c-3.4-0.37-6.18-1.54-8.5-3.59C156.68,377.66,153.9,378.83,150.5,379.21z"/>
		<path class="st4" d="M159,401.69l-0.39-0.17c-7.48-3.22-11.61-8.12-11.61-13.82v-11.86h1c4.64,0,7.7-1.33,10.22-4.46l0.78-0.97
			l0.78,0.97c2.52,3.13,5.58,4.46,10.22,4.46h1v11.86c0,5.69-4.12,10.6-11.61,13.82L159,401.69z M149,377.82v9.89
			c0,6.32,6.09,10.06,10,11.81c3.91-1.75,10-5.49,10-11.81v-9.89c-4.27-0.18-7.43-1.53-10-4.29
			C156.43,376.29,153.27,377.64,149,377.82z"/>
	</g>
</g>
<path id="pen_00000099636461772795807190000003032315745353432460_" class="st4" d="M235,60h-2V47c0-2.76-2.24-5-5-5h-11
	c-2.76,0-5,2.24-5,5v13h-2c-2.76,0-5,2.24-5,5v2h-7c-3.86,0-7,3.14-7,7v140c0,2.76,2.24,5,5,5s5-2.24,5-5V86h4v255.3l10.52,34.7H220
	v7c0,1.1,0.9,2,2,2s2-0.9,2-2v-7h4.44L240,341.32V65C240,62.24,237.76,60,235,60z M217,46h11c0.55,0,1,0.45,1,1v15h-13V47
	C216,46.45,216.45,46,217,46z M209,65c0-0.55,0.45-1,1-1h25c0.55,0,1,0.45,1,1v23h-27V65z M209,340V90h27v250H209z M197,82v132
	c0,0.55-0.45,1-1,1s-1-0.45-1-1V74c0-1.65,1.35-3,3-3h9v11H197z M225.56,372h-7.08l-9.09-30h26.17L225.56,372z"/>
<g id="grid_lines" class="st5">
	<g>
		<line class="st6" x1="236" y1="335" x2="167" y2="335"/>
	</g>
	<g>
		<line class="st6" x1="236" y1="275" x2="167" y2="275"/>
	</g>
	<g>
		<line class="st6" x1="236" y1="215" x2="167" y2="215"/>
	</g>
	<g>
		<line class="st6" x1="236" y1="155" x2="167" y2="155"/>
	</g>
	<g>
		<line class="st6" x1="236" y1="95" x2="167" y2="95"/>
	</g>
</g>
<g id="bar">
	<defs>
		<filter id="Adobe_OpacityMaskFilter" filterUnits="userSpaceOnUse" x="213" y="94" width="19" height="242">
			<feColorMatrix  type="matrix" values="1 0 0 0 0  0 1 0 0 0  0 0 1 0 0  0 0 0 1 0"/>
		</filter>
	</defs>
	
		<mask maskUnits="userSpaceOnUse" x="213" y="94" width="19" height="242" id="bar_00000108285719107607580150000018204587461148663467_">
		<g id="mask" class="st7">
			<rect id="_x7B__x7B_sy:_x23_0_x2C_o:0.5_x3B_1_x7D__x7D_" x="213" y="94" class="st8" width="19" height="242"/>
		</g>
	</mask>
	
		<rect id="bar_00000159438346624292936920000007586214576285236120_" x="213" y="94" style="mask:url(#bar_00000108285719107607580150000018204587461148663467_);fill:#0293A0;" width="19" height="242"/>
	<g id="bar_grid_lines" class="st5">
		<line class="st10" x1="232" y1="335" x2="213" y2="335"/>
		<line class="st10" x1="232" y1="275" x2="213" y2="275"/>
		<line class="st10" x1="232" y1="215" x2="213" y2="215"/>
		<line class="st10" x1="232" y1="155" x2="213" y2="155"/>
		<line class="st10" x1="232" y1="95" x2="213" y2="95"/>
	</g>
</g>
<linearGradient id="shine_00000169531602567037894430000004989704910832144300_" gradientUnits="userSpaceOnUse" x1="213" y1="215" x2="222" y2="215">
	<stop  offset="0" style="stop-color:#FFFFFF"/>
	<stop  offset="1" style="stop-color:#FFFFFF;stop-opacity:0.3"/>
</linearGradient>
<rect id="shine_00000091008309965269043600000012869153302409665163_" x="213" y="94" style="opacity:0.3;fill:url(#shine_00000169531602567037894430000004989704910832144300_);" width="9" height="242"/>
<g id="_x7B__x7B_ta:end_x7D__x7D__00000026150382613295286290000013338375509109719188_">
	<text transform="matrix(1 0 0 1 46.4297 342.5313)" class="st12 st13 st14">{{#0|c,r:0}}</text>
</g>
<g id="_x7B__x7B_ta:end_x7D__x7D__00000161619925334424253320000011442313559868003968_">
	<text transform="matrix(1 0 0 1 13.4297 282.5313)" class="st12 st13 st14">{{#0|c,r:0.25}}</text>
</g>
<g id="_x7B__x7B_ta:end_x7D__x7D__00000073706882505467088600000002046329755614173611_">
	<text transform="matrix(1 0 0 1 13.4297 222.5313)" class="st12 st13 st14">{{#0|c,r:0.50}}</text>
</g>
<g id="_x7B__x7B_ta:end_x7D__x7D__00000047055393571923356660000015324077857147782017_">
	<text transform="matrix(1 0 0 1 13.4297 162.5313)" class="st12 st13 st14">{{#0|c,r:0.75}}</text>
</g>
<g id="_x7B__x7B_ta:end_x7D__x7D_">
	<text transform="matrix(1 0 0 1 46.4297 102.5313)" class="st12 st13 st14">{{#0|c,r:1}}</text>
</g>
<g id="_x7B__x7B_py:_x23_0_x2C_g:valuePath_x2C_o:0_x3B_0.5_x7D__x7D_">
	<rect id="spacer" x="236.54" y="308.28" class="st15" width="190" height="54"/>
	<g>
		<text transform="matrix(1 0 0 1 260.1788 350.7783)" class="st16 st17 st18">{{#0|c}}</text>
	</g>
	<polygon class="st8" points="255.07,323.06 252.13,324.63 237.13,332.63 231.83,335.46 233.64,336.3 237.27,338 252.27,345 
		255.12,346.33 256.54,346.99 256.54,322.28 	"/>
	<g>
		<polygon class="st0" points="253.54,342.28 238.54,335.28 253.54,327.28 		"/>
	</g>
</g>
<line id="_x7B__x7B_valuePath_x7D__x7D_" class="st15" x1="232" y1="336" x2="232" y2="94"/>
</svg>
