<?xml version="1.0" encoding="utf-8"?>
<!-- Generator: Adobe Illustrator 26.0.1, SVG Export Plug-In . SVG Version: 6.00 Build 0)  -->
<svg version="1.1" id="WarrantyCost_x5F_Gauge_00000157273055666089563840000010726007685598505873_"
	 xmlns="http://www.w3.org/2000/svg" xmlns:xlink="http://www.w3.org/1999/xlink" x="0px" y="0px" viewBox="0 0 540 540"
	 style="enable-background:new 0 0 540 540;" xml:space="preserve">
<style type="text/css">
	.st0{fill:#A0A0A0;}
	.st1{fill:#0293A0;}
	.st2{opacity:0.2;}
	.st3{fill:none;stroke:#000000;stroke-width:2;stroke-miterlimit:10;stroke-dasharray:3,2;}
	.st4{filter:url(#Adobe_OpacityMaskFilter);}
	.st5{fill:#FFFFFF;}
	.st6{mask:url(#bar_00000026123530534074707400000013597801401785501329_);}
	.st7{fill:#1D1D1D;}
	.st8{fill:none;stroke:#FFFFFF;stroke-width:2;stroke-miterlimit:10;stroke-dasharray:3,2;}
	.st9{font-family:'Roboto-Bold';}
	.st10{font-size:20px;}
	.st11{opacity:0.3;fill:url(#shine_00000086676075756630913180000008570654901971573919_);}
	.st12{fill:#696969;}
	.st13{font-family:'Roboto-Regular';}
	.st14{font-size:24px;}
	.st15{font-family:'Roboto-Medium';}
	.st16{font-size:26px;}
	.st17{letter-spacing:-2;}
	.st18{fill:none;}
	.st19{fill:#01929F;}
	.st20{font-size:50px;}
</style>
<g id="outline">
	<path class="st0" d="M303.83,121h-53.52c-1.47-12.2-11.79-21.5-24.31-21.5s-22.84,9.3-24.31,21.5h-53.52L122,147.17V452
		c0,4.41,3.59,8,8,8h192c4.41,0,8-3.59,8-8V147.17L303.83,121z M326,452c0,2.21-1.79,4-4,4H130c-2.21,0-4-1.79-4-4V148.83
		L149.83,125h55.7v-1.94c0.48-10.97,9.47-19.56,20.47-19.56s19.99,8.59,20.47,19.56V125h55.7L326,148.83V452z"/>
	<path class="st0" d="M237.94,122.8c-0.61-6.16-5.74-10.8-11.94-10.8s-11.33,4.64-11.94,10.82c-0.04,0.39-0.06,0.78-0.06,1.18
		c0,6.62,5.38,12,12,12s12-5.38,12-12c0-0.4-0.02-0.79-0.06-1.18L237.94,122.8z M226,132c-4.41,0-8-3.59-8-8
		c0-0.28,0.02-0.55,0.04-0.8c0.41-4.1,3.83-7.2,7.96-7.2c4.13,0,7.55,3.09,7.96,7.19c0.02,0.27,0.04,0.54,0.04,0.81
		C234,128.41,230.41,132,226,132z"/>
</g>
<g id="string">
	<g>
		<path class="st0" d="M237.87,96.77c-0.95-1.39-2.32-2.38-3.87-2.89V100h-0.05c0.27,0.6,0.3,1.28,0.05,1.91l-6.33,16.18
			c-0.5,1.29,0.13,2.74,1.42,3.24c0.3,0.12,0.61,0.17,0.91,0.17c1,0,1.94-0.6,2.33-1.59l6.33-16.18
			C239.56,101.42,239.27,98.82,237.87,96.77z"/>
		<path class="st0" d="M218,101.91c-0.25-0.63-0.22-1.31,0.05-1.91H218v-6.12c-1.55,0.51-2.92,1.5-3.87,2.89
			c-1.4,2.05-1.69,4.65-0.79,6.96l6.33,16.18c0.5,1.29,1.95,1.92,3.24,1.42c1.29-0.5,1.92-1.95,1.42-3.24L218,101.91z"/>
	</g>
	<g>
		<path class="st0" d="M316,108c-15.99,0-29-13.01-29-29v-1.5c0-17.09-13.91-31-31-31s-31,13.91-31,31v23c0,1.38-1.12,2.5-2.5,2.5
			s-2.5-1.12-2.5-2.5v-23c0-19.85,16.15-36,36-36s36,16.15,36,36V79c0,13.23,10.77,24,24,24s24-10.77,24-24c0-1.38,1.12-2.5,2.5-2.5
			s2.5,1.12,2.5,2.5C345,94.99,331.99,108,316,108z"/>
		<path class="st0" d="M316,115c-19.85,0-36-16.15-36-36v-1.5c0-13.23-10.77-24-24-24s-24,10.77-24,24v23c0,1.38-1.12,2.5-2.5,2.5
			s-2.5-1.12-2.5-2.5v-23c0-15.99,13.01-29,29-29s29,13.01,29,29V79c0,17.09,13.91,31,31,31c9.65,0,18.59-4.4,24.53-12.06
			c0.85-1.09,2.41-1.29,3.51-0.45c1.09,0.85,1.29,2.42,0.45,3.51C337.59,109.9,327.21,115,316,115z"/>
	</g>
</g>
<path id="background_color" class="st1" d="M299,136h-55.79c-3.8,5.43-10.09,9-17.21,9s-13.41-3.57-17.21-9H153l-17,17v293h180V153
	L299,136z M311,441H141V341h170V441z"/>
<g id="grid_lines_00000160188455131796659550000002358955986317617840_" class="st2">
	<g>
		<line class="st3" x1="326" y1="335" x2="125" y2="335"/>
	</g>
	<g>
		<line class="st3" x1="326" y1="290" x2="125" y2="290"/>
	</g>
	<g>
		<line class="st3" x1="326" y1="245" x2="125" y2="245"/>
	</g>
	<g>
		<line class="st3" x1="326" y1="200" x2="125" y2="200"/>
	</g>
	<g>
		<line class="st3" x1="326" y1="155" x2="125" y2="155"/>
	</g>
</g>
<defs>
	<filter id="Adobe_OpacityMaskFilter" filterUnits="userSpaceOnUse" x="206" y="154" width="40" height="182">
		<feColorMatrix  type="matrix" values="1 0 0 0 0  0 1 0 0 0  0 0 1 0 0  0 0 0 1 0"/>
	</filter>
</defs>
<mask maskUnits="userSpaceOnUse" x="206" y="154" width="40" height="182" id="bar_00000182507637536411069740000007871703893358129840_">
	<g id="mask" class="st4">
		<rect id="_x7B__x7B_sy:_x23_0_x2C_o:0.5_x3B_1_x7D__x7D_" x="206" y="154" class="st5" width="40" height="182"/>
	</g>
</mask>
<g id="bar_00000075854356459916241020000016491690230725533119_" style="mask:url(#bar_00000182507637536411069740000007871703893358129840_);">
	<rect id="bar" x="206" y="154" class="st7" width="40" height="182"/>
	<g id="grid_lines_00000135650177593299540770000011175515799606790289_" class="st2">
		<g>
			<line class="st8" x1="246" y1="335" x2="206" y2="335"/>
		</g>
		<g>
			<line class="st8" x1="246" y1="290" x2="206" y2="290"/>
		</g>
		<g>
			<line class="st8" x1="246" y1="245" x2="206" y2="245"/>
		</g>
		<g>
			<line class="st8" x1="246" y1="200" x2="206" y2="200"/>
		</g>
		<g>
			<line class="st8" x1="246" y1="155" x2="206" y2="155"/>
		</g>
	</g>
</g>
<g id="icon">
	<path class="st1" d="M264.06,424.37l-23.07-23.07l-3.26,3.26l-0.98-0.98l1.96-2c4.6-4.6,4.58-12.1-0.04-16.72l-5.17-5.17l1.9-1.9
		c4.85,1.54,10.14,0.29,13.79-3.36c3.56-3.56,4.87-8.77,3.43-13.6l-0.96-3.21l-8.33,8.33l-4.99-4.99l8.33-8.33l-3.21-0.96
		c-4.83-1.45-10.04-0.13-13.6,3.43c-3.66,3.66-4.91,8.94-3.36,13.79l-2.44,2.45l-1.56-1.56c-1.28-1.28-2.99-1.98-4.81-1.98
		c-0.03,0-0.06,0-0.09,0c-1.84,0.02-3.58,0.76-4.89,2.07c-1.25,1.25-1.93,2.85-2.05,4.47c-0.19-0.02-0.38-0.03-0.57-0.03
		c-0.03,0-0.06,0-0.09,0c-1.84,0.02-3.58,0.76-4.89,2.07c-1.39,1.39-2.08,3.21-2.07,5.02c-1.81-0.01-3.62,0.66-4.99,2.04
		c-1.78,1.79-2.39,4.3-1.83,6.6c-1.24,0.26-2.37,0.86-3.28,1.78l-0.63,0.63c-2.55,2.55-2.55,6.71,0,9.26l0.69,0.69l-3.05,3.05
		c-3.63-0.7-7.38,0.43-10.04,3.08c-3.15,3.15-4.14,7.87-2.51,12.03l1.12,2.85l6.83-6.83l2.39,2.39l-6.83,6.83l2.85,1.12
		c1.33,0.52,2.72,0.77,4.09,0.77c2.92,0,5.79-1.14,7.93-3.28c2.65-2.65,3.78-6.41,3.08-10.04l3.47-3.47c0.73,0.27,1.5,0.42,2.3,0.42
		c0.17,0,0.35-0.01,0.52-0.03l6.75,6.75c1.43,1.43,3.44,2.12,5.67,1.91c1.31-0.12,2.6-0.55,3.71-1.22l1.15,1.15l-3.26,3.26
		l14.32,14.32c0.39,0.39,0.9,0.59,1.41,0.59s1.02-0.2,1.41-0.59c0.78-0.78,0.78-2.05,0-2.83l-4.05-4.05l16.18-16.18l12.8,12.8
		c0.39,0.39,0.9,0.59,1.41,0.59s1.02-0.2,1.41-0.59C264.84,426.42,264.84,425.16,264.06,424.37z M230.64,368.59
		c-1.58-3.67-0.78-7.86,2.03-10.68c1.59-1.59,3.65-2.55,5.81-2.78l-5.82,5.82l10.65,10.65l5.82-5.82c-0.23,2.16-1.19,4.22-2.78,5.81
		c-2.82,2.82-7.01,3.62-10.68,2.03l-1.25-0.54l-4.31,4.31l-3.25-3.25l4.31-4.31L230.64,368.59z M215.51,372.69
		c0.57-0.57,1.32-0.89,2.12-0.9c0.8-0.03,1.49,0.28,2.03,0.81l5.26,5.26c-0.8,0.36-1.54,0.86-2.19,1.5l-2.39,2.39l-4.92-4.92
		C214.31,375.71,214.35,373.85,215.51,372.69z M207.82,383.35c-1.12-1.12-1.08-2.98,0.09-4.14c0.57-0.57,1.32-0.89,2.12-0.9
		c0.76-0.02,1.49,0.28,2.03,0.81l5.47,5.47l-4.23,4.23l-5.36-5.36c0,0,0,0-0.01,0L207.82,383.35z M200.85,386.26
		c1.17-1.17,3.07-1.16,4.24,0.01l5.41,5.41c-1.07,1.37-1.64,3.08-1.58,4.84c0.03,0.91,0.23,1.79,0.57,2.61l-8.63-8.63
		C199.69,389.34,199.68,387.43,200.85,386.26z M195.11,395.27l0.63-0.63c0.48-0.48,1.12-0.75,1.8-0.75c0.68,0,1.32,0.27,1.8,0.75
		l7.69,7.69c0.48,0.48,0.75,1.12,0.75,1.8c0,0.68-0.27,1.32-0.75,1.8l-0.63,0.63c-0.96,0.96-2.64,0.96-3.61,0l-7.69-7.69
		C194.11,397.88,194.11,396.26,195.11,395.27z M194.35,413.18l0.36,1.15c0.79,2.57,0.11,5.34-1.79,7.24
		c-1.16,1.16-2.66,1.87-4.22,2.06l4.66-4.66l-8.04-8.04l-4.66,4.66c0.19-1.57,0.9-3.06,2.06-4.22c1.9-1.89,4.67-2.58,7.24-1.79
		l1.15,0.36l4.7-4.7l3.25,3.25L194.35,413.18z M221.43,413.25l-1.41,1.42c-0.72,0.72-1.78,1.2-2.84,1.3
		c-0.59,0.05-1.7,0.03-2.48-0.75l-5.65-5.65c0.06-0.06,0.12-0.11,0.18-0.17l0.63-0.63c1.24-1.24,1.92-2.88,1.92-4.63
		c0-0.03,0-0.05,0-0.08c0.88-0.01,1.76-0.21,2.6-0.56c2.44,0.66,5.13-0.04,7.16-2.06l4.82-4.82l0.07,0.82
		c0.1,1.1,1.07,1.9,2.17,1.81c1.1-0.1,1.91-1.07,1.81-2.17l-0.84-9.34l-10.86,10.86c-1.36,1.36-3.25,1.5-4.58,0.33
		c-0.74-0.65-1.17-1.55-1.2-2.54c-0.03-0.97,0.33-1.88,1-2.56l11.64-11.64c0.64-0.64,1.48-0.99,2.4-0.97
		c0.92,0.02,1.8,0.39,2.47,1.07l5.4,5.4c3.06,3.06,3.08,8.03,0.03,11.08l-4.76,4.83l5.04,5.04l-9.66,9.66L221.43,413.25z
		 M230.83,429.17l-6.03-6.03l3.26-3.26l-0.16-0.16l9.66-9.66l0.16,0.16l3.26-3.26l6.03,6.03L230.83,429.17z"/>
	<path class="st1" d="M228.33,420.8c-1.29,1.29-1.29,3.39,0,4.67c0.62,0.62,1.45,0.97,2.34,0.97s1.71-0.34,2.34-0.97
		c0.62-0.62,0.97-1.45,0.97-2.34s-0.34-1.71-0.97-2.34C231.72,419.52,229.62,419.52,228.33,420.8z M231.59,424.06
		c-0.49,0.5-1.35,0.49-1.84,0c-0.51-0.51-0.51-1.34,0-1.84c0.25-0.25,0.59-0.38,0.92-0.38s0.67,0.13,0.92,0.38
		c0.25,0.25,0.38,0.57,0.38,0.92C231.97,423.49,231.83,423.82,231.59,424.06z"/>
</g>
<g id="_x24__corner">
	<g>
		<polygon class="st1" points="308,388 258,438 308,438 		"/>
	</g>
	<g>
		<text transform="matrix(1 0 0 1 288.2627 429.5801)" class="st5 st9 st10">$</text>
	</g>
</g>
<g id="tick_lines_00000011725720712915760610000017550284979597382078_">
	<g>
		<g>
			<path class="st0" d="M125,336h-12c-0.55,0-1-0.45-1-1s0.45-1,1-1h12c0.55,0,1,0.45,1,1S125.55,336,125,336z"/>
		</g>
	</g>
	<g>
		<g>
			<path class="st0" d="M125,291h-12c-0.55,0-1-0.45-1-1s0.45-1,1-1h12c0.55,0,1,0.45,1,1S125.55,291,125,291z"/>
		</g>
	</g>
	<g>
		<g>
			<path class="st0" d="M125,246h-12c-0.55,0-1-0.45-1-1s0.45-1,1-1h12c0.55,0,1,0.45,1,1S125.55,246,125,246z"/>
		</g>
	</g>
	<g>
		<g>
			<path class="st0" d="M125,201h-12c-0.55,0-1-0.45-1-1s0.45-1,1-1h12c0.55,0,1,0.45,1,1S125.55,201,125,201z"/>
		</g>
	</g>
	<g>
		<g>
			<path class="st0" d="M125,156h-12c-0.55,0-1-0.45-1-1s0.45-1,1-1h12c0.55,0,1,0.45,1,1S125.55,156,125,156z"/>
		</g>
	</g>
</g>
<linearGradient id="shine_00000175313101439328887010000014837248848063994782_" gradientUnits="userSpaceOnUse" x1="153.4001" y1="218.6193" x2="234.8404" y2="291.2784">
	<stop  offset="0" style="stop-color:#FFFFFF"/>
	<stop  offset="1" style="stop-color:#FFFFFF;stop-opacity:0.3"/>
</linearGradient>
<path id="shine" style="opacity:0.3;fill:url(#shine_00000175313101439328887010000014837248848063994782_);" d="M299,136h-55.79
	c-3.8,5.43-10.09,9-17.21,9s-13.41-3.57-17.21-9H153l-17,17v262.62L316,192v-39L299,136z"/>
<text transform="matrix(1 0 0 1 46.0469 163.5313)"><tspan x="0" y="0" class="st12 st13 st14">$40M</tspan><tspan x="0" y="45" class="st12 st13 st14">$30M</tspan><tspan x="0" y="90" class="st12 st13 st14">$20M</tspan><tspan x="0" y="135" class="st12 st13 st14">$10M</tspan><tspan x="13.48" y="180" class="st12 st13 st14">$0M</tspan></text>
<g>
	<text transform="matrix(1 0 0 1 129.6014 496.9539)"><tspan x="0" y="0" class="st7 st15 st16 st17">T</tspan><tspan x="13.14" y="0" class="st7 st15 st16">otal Labor Cost</tspan></text>
</g>
<g id="_x7B__x7B_py:_x23_0_x2C_g:valuePath_x2C_o:0_x3B_0.5_x7D__x7D_">
	<rect id="spacer" x="316" y="308" class="st18" width="190" height="54"/>
	<g>
		<text transform="matrix(1 0 0 1 339.6395 350.4998)" class="st19 st9 st20">{{#0|c}}</text>
	</g>
	<polygon class="st5" points="334.53,322.78 331.59,324.35 316.59,332.35 311.29,335.18 313.1,336.03 316.73,337.72 331.73,344.72 
		334.58,346.05 336,346.71 336,322 	"/>
	<g>
		<polygon class="st7" points="333,342 318,335 333,327 		"/>
	</g>
</g>
<line id="_x7B__x7B_valuePath_x7D__x7D_" class="st18" x1="311" y1="336" x2="311" y2="154"/>
</svg>
