<?xml version="1.0" encoding="utf-8"?>
<!-- Generator: Adobe Illustrator 26.0.1, SVG Export Plug-In . SVG Version: 6.00 Build 0)  -->
<svg version="1.1" id="WarrantyCost_x5F_KeyValue" xmlns="http://www.w3.org/2000/svg" xmlns:xlink="http://www.w3.org/1999/xlink"
	 x="0px" y="0px" viewBox="0 0 320 500" enable-background="new 0 0 320 500" xml:space="preserve">
<linearGradient id="colored_background_00000063617098331029457600000010749632019620015790_" gradientUnits="userSpaceOnUse" x1="145" y1="463" x2="145" y2="151">
	<stop  offset="1.574796e-03" style="stop-color:#0293A0"/>
	<stop  offset="1" style="stop-color:#01929F"/>
</linearGradient>
<path id="colored_background" fill="url(#colored_background_00000063617098331029457600000010749632019620015790_)" d="M220.03,151
	h-51.54c-4.3,8.03-12.77,13.5-22.49,13.5s-18.19-5.47-22.49-13.5H69.97L47,173.97V463h196V173.97L220.03,151z"/>
<rect id="value_string_background" x="52" y="358" fill="#FFFFFF" width="186" height="100"/>
<g id="icon_00000100345571110466601030000013581446502185907377_">
	<path id="outline" fill="#FFFFFF" d="M185,276v-61c0-9.37-7.63-17-17-17H94c-9.37,0-17,7.63-17,17v2h28v61c0,9.37,7.63,17,17,17h76
		c9.37,0,17-7.63,17-17v-2H185z M81.15,213c0.96-6.22,6.36-11,12.85-11c6.49,0,11.86,4.78,12.83,11l0,0H81.15z M109,278v-63
		c0-5.56-3.05-10.41-7.55-13H168c7.17,0,13,5.83,13,13v63h-47v1c0,6.62-5.38,12-12,12C114.83,291,109,285.17,109,278z M198,291
		h-68.82c3.81-2.29,6.45-6.33,6.78-11h74.88C209.88,286.22,204.49,291,198,291z"/>
	<path id="seal" fill="#FFFFFF" d="M172.61,259.2l-2.24-5.56l5.08-3.19l-5.08-3.19l2.24-5.56l-5.98,0.41l-1.46-5.82l-4.6,3.85
		l-4.6-3.85l-1.46,5.82l-5.98-0.41l2.24,5.56l-5.08,3.19l5.08,3.19l-2.24,5.56l4.72-0.33l-6.15,10.65l4.96-0.6l1.96,4.6l6.54-11.32
		l6.54,11.32l1.96-4.6l4.96,0.6l-6.15-10.65L172.61,259.2z M149.46,250.45l3.8-2.38l-1.67-4.16l4.47,0.31l1.09-4.35l3.44,2.88
		l3.44-2.88l1.09,4.35l4.47-0.31l-1.67,4.16l3.8,2.38l-3.8,2.38l1.67,4.16l-4.47-0.31l-1.09,4.35l-3.44-2.88l-3.44,2.88l-1.09-4.35
		l-4.47,0.31l1.67-4.16L149.46,250.45z"/>
	<g id="lines">
		<g>
			<g>
				<path fill="#FFFFFF" d="M139,262h-15c-0.55,0-1-0.45-1-1s0.45-1,1-1h15c0.55,0,1,0.45,1,1S139.55,262,139,262z"/>
			</g>
		</g>
		<g>
			<g>
				<path fill="#FFFFFF" d="M139,254h-15c-0.55,0-1-0.45-1-1s0.45-1,1-1h15c0.55,0,1,0.45,1,1S139.55,254,139,254z"/>
			</g>
		</g>
		<g>
			<g>
				<path fill="#FFFFFF" d="M139.09,246H124c-0.55,0-1-0.45-1-1s0.45-1,1-1h15.09c0.55,0,1,0.45,1,1S139.64,246,139.09,246z"/>
			</g>
		</g>
		<g>
			<g>
				<path fill="#FFFFFF" d="M139,238h-15c-0.55,0-1-0.45-1-1s0.45-1,1-1h15c0.55,0,1,0.45,1,1S139.55,238,139,238z"/>
			</g>
		</g>
		<g>
			<g>
				<path fill="#FFFFFF" d="M166,230h-42c-0.55,0-1-0.45-1-1s0.45-1,1-1h42c0.55,0,1,0.45,1,1S166.55,230,166,230z"/>
			</g>
		</g>
		<g>
			<g>
				<path fill="#FFFFFF" d="M166,222h-42c-0.55,0-1-0.45-1-1s0.45-1,1-1h42c0.55,0,1,0.45,1,1S166.55,222,166,222z"/>
			</g>
		</g>
	</g>
</g>
<g id="price_tag_outline">
	<path fill="#A0A0A0" d="M225.83,137h-50.4c-1.03-15.34-13.83-27.5-29.42-27.5s-28.39,12.16-29.42,27.5h-52.4L33,168.17V469
		c0,4.41,3.59,8,8,8h208c4.41,0,8-3.59,8-8V168.17L225.83,137z M253,469c0,2.21-1.79,4-4,4H41c-2.21,0-4-1.79-4-4V169.83L65.83,141
		h54.67v-2c0-14.06,11.44-25.5,25.5-25.5s25.5,11.44,25.5,25.5v2h52.67L253,169.83V469z"/>
	<path fill="#A0A0A0" d="M146,153.5c-8,0-14.5-6.5-14.5-14.5s6.5-14.5,14.5-14.5s14.5,6.5,14.5,14.5S154,153.5,146,153.5z
		 M146,128.5c-5.79,0-10.5,4.71-10.5,10.5s4.71,10.5,10.5,10.5s10.5-4.71,10.5-10.5S151.79,128.5,146,128.5z"/>
</g>
<g id="string">
	<path fill="#A0A0A0" d="M155,101.12V108l-5.91,24.28c-0.4,1.61,0.58,3.24,2.19,3.64c0.24,0.06,0.49,0.09,0.73,0.09
		c1.35,0,2.57-0.91,2.91-2.28l5.69-22.85c0.6-2.41,0.07-4.91-1.46-6.86C157.96,102.51,156.82,101.51,155,101.12z"/>
	<path fill="#A0A0A0" d="M137,108v-6.84c-1.74,0.41-2.8,1.39-3.94,2.83c-1.53,1.94-2.07,4.43-1.49,6.82l5.51,22.88
		c0.39,1.61,2.01,2.6,3.62,2.21c1.61-0.39,2.6-2.01,2.21-3.62L137,108z"/>
	<path fill="#A0A0A0" d="M216.5,30C178.18,30,147,61.18,147,99.5v10c0,1.66,1.34,3,3,3s3-1.34,3-3v-10c0-35.01,28.49-63.5,63.5-63.5
		S280,64.49,280,99.5V245c0,1.66,1.34,3,3,3s3-1.34,3-3V99.5C286,61.18,254.82,30,216.5,30z"/>
	<path fill="#A0A0A0" d="M216.5,22C173.77,22,139,56.77,139,99.5v10c0,1.66,1.34,3,3,3s3-1.34,3-3v-10c0-39.43,32.07-71.5,71.5-71.5
		S288,60.07,288,99.5V258c0,1.66,1.34,3,3,3s3-1.34,3-3V99.5C294,56.77,259.23,22,216.5,22z"/>
</g>
<g id="_x7B__x7B_ta:middle_x7D__x7D__00000003080065224974911030000009224034769790341250_">
	<g id="_x7B__x7B__x23_0_x7D__x7D_">
		<text transform="matrix(1 0 0 1 62 425.5219)" fill="#01929F" font-family="'Roboto-Bold'" font-size="50px">{{#0|c}}</text>
	</g>
</g>
<text transform="matrix(1 0 0 1 55.8555 345.3447)" fill="#FFFFFF" font-family="'Roboto-Medium'" font-size="20px">Total Warranty Cost</text>
<linearGradient id="shine_00000170962364471217024830000007331527695270460801_" gradientUnits="userSpaceOnUse" x1="46.0757" y1="184.2475" x2="151.2797" y2="289.2271">
	<stop  offset="0" style="stop-color:#FFFFFF"/>
	<stop  offset="1" style="stop-color:#FFFFFF;stop-opacity:0.3"/>
</linearGradient>
<path id="shine_00000049192913335818573880000002099318800031931063_" opacity="0.3" fill="url(#shine_00000170962364471217024830000007331527695270460801_)" d="
	M220.03,151h-51.54c-4.3,8.03-12.77,13.5-22.49,13.5s-18.19-5.47-22.49-13.5H70l-23,22.97V392l196-199v-19.03L220.03,151z"/>
</svg>
