<svg xmlns="http://www.w3.org/2000/svg" xmlns:xlink="http://www.w3.org/1999/xlink" viewBox="0 0 320 500">
  <defs>
    <linearGradient id="linear-gradient" x1="145" y1="463" x2="145" y2="151" gradientUnits="userSpaceOnUse">
      <stop offset="0.00157" stop-color="#0293a0"/>
      <stop offset="1" stop-color="#01929f"/>
    </linearGradient>
    <linearGradient id="linear-gradient-2" x1="46.07569" y1="184.24746" x2="151.27968" y2="289.22716" gradientUnits="userSpaceOnUse">
      <stop offset="0" stop-color="#fff"/>
      <stop offset="1" stop-color="#fff" stop-opacity="0.3"/>
    </linearGradient>
  </defs>
  <g style="isolation: isolate">
    <g id="WarrantyCost_KeyValue-2" data-name="WarrantyCost_KeyValue">
      <path id="colored_background" data-name="colored background" d="M220.0293,151H168.492a25.48667,25.48667,0,0,1-44.984,0H69.9707L47,173.9707V463H243V173.9707Z" fill="url(#linear-gradient)"/>
      <rect id="value_string_background" data-name="value string background" x="52" y="358" width="186" height="100" fill="#fff"/>
      <g id="icon">
        <path id="outline" d="M185,276V215a17.019,17.019,0,0,0-17-17H94a17.019,17.019,0,0,0-17,17v2h28v61a17.019,17.019,0,0,0,17,17h76a17.019,17.019,0,0,0,17-17v-2ZM81.15381,213a12.99155,12.99155,0,0,1,25.67621.0014L106.82861,213ZM109,278V215a14.99848,14.99848,0,0,0-7.54871-13H168a13.01442,13.01442,0,0,1,13,13v63H134v1a12.01375,12.01375,0,0,1-12,12A13.01442,13.01442,0,0,1,109,278Zm89,13H129.17987a14.006,14.006,0,0,0,6.785-11h74.88135A13.02,13.02,0,0,1,198,291Z" fill="#fff"/>
        <path id="seal" d="M172.61475,259.20264l-2.2378-5.56494,5.08057-3.18555L170.377,247.2666l2.23877-5.56494-5.98437.4126-1.45557-5.82178-4.60058,3.855-4.60059-3.855-1.45557,5.82129-5.98437-.41211,2.23877,5.56494-5.08057,3.18555,5.08057,3.18506-2.23877,5.56494,4.72479-.32538L147.111,269.52625l4.96411-.59809,1.96412,4.59809,6.53588-11.3205,6.53589,11.3205,1.96411-4.59809,4.96412.59809-6.14844-10.64936Zm-23.15723-8.75049,3.79541-2.37988-1.67139-4.15577,4.47168.30762,1.08643-4.3457,3.43555,2.87842,3.43554-2.87842,1.08643,4.34619,4.47168-.30811-1.67139,4.15577,3.79541,2.37988-3.79541,2.37988,1.67139,4.15576-4.47168-.3081-1.08643,4.34619-3.43554-2.87842-3.43555,2.87842-1.08643-4.34619-4.47168.30761,1.67139-4.15576Z" fill="#fff"/>
        <g id="lines">
          <path d="M139,262H124a1,1,0,0,1,0-2h15a1,1,0,0,1,0,2Z" fill="#fff"/>
          <path d="M139,254H124a1,1,0,0,1,0-2h15a1,1,0,0,1,0,2Z" fill="#fff"/>
          <path d="M139.0918,246H124a1,1,0,0,1,0-2h15.0918a1,1,0,1,1,0,2Z" fill="#fff"/>
          <path d="M139,238H124a1,1,0,0,1,0-2h15a1,1,0,0,1,0,2Z" fill="#fff"/>
          <path d="M166,230H124a1,1,0,0,1,0-2h42a1,1,0,0,1,0,2Z" fill="#fff"/>
          <path d="M166,222H124a1,1,0,0,1,0-2h42a1,1,0,0,1,0,2Z" fill="#fff"/>
        </g>
      </g>
      <g id="price_tag_outline" data-name="price tag outline">
        <path d="M225.82861,137h-50.404a29.492,29.492,0,0,0-58.84924,0h-52.404L33,168.17139V469a8.00917,8.00917,0,0,0,8,8H249a8.00917,8.00917,0,0,0,8-8V168.17139ZM253,469a4.00427,4.00427,0,0,1-4,4H41a4.00427,4.00427,0,0,1-4-4V169.82861L65.82861,141H120.5v-2a25.5,25.5,0,0,1,51,0v2h52.67139L253,169.82861Z" fill="#a0a0a0"/>
        <path d="M146,153.5A14.5,14.5,0,1,1,160.5,139,14.51669,14.51669,0,0,1,146,153.5Zm0-25A10.5,10.5,0,1,0,156.5,139,10.51211,10.51211,0,0,0,146,128.5Z" fill="#a0a0a0"/>
      </g>
      <g id="string">
        <path d="M155,101.12433V108l-5.91113,24.27539a3,3,0,1,0,5.82226,1.44922l5.6875-22.84668a7.95156,7.95156,0,0,0-1.45947-6.85938A6.8285,6.8285,0,0,0,155,101.12433Z" fill="#a0a0a0"/>
        <path d="M137,108v-6.83978a6.80386,6.80386,0,0,0-3.937,2.83441,7.95416,7.95416,0,0,0-1.49268,6.82422l5.51319,22.88379a2.99995,2.99995,0,0,0,5.833-1.40528Z" fill="#a0a0a0"/>
        <path d="M216.5,30A69.57892,69.57892,0,0,0,147,99.5v10a3,3,0,0,0,6,0v-10a63.5,63.5,0,0,1,127,0V245a3,3,0,0,0,6,0V99.5A69.57892,69.57892,0,0,0,216.5,30Z" fill="#a0a0a0"/>
        <path d="M216.5,22A77.58746,77.58746,0,0,0,139,99.5v10a3,3,0,0,0,6,0v-10a71.5,71.5,0,0,1,143,0V258a3,3,0,0,0,6,0V99.5A77.58746,77.58746,0,0,0,216.5,22Z" fill="#a0a0a0"/>
      </g>
      <g id="_a:middle_" data-name="{{a:middle}}">
        <g id="_0_" data-name="{{#0}}">
          <text transform="translate(62 425.52185)" font-size="50" fill="#01929f" font-family="Roboto-Bold, Roboto" font-weight="700">{{#0|c}}</text>
        </g>
      </g>
      <g id="_a:middle_2" data-name="{{a:middle}}">
        <text transform="translate(94.00098 345.34473)" font-size="20" fill="#fff" font-family="Roboto-Medium, Roboto" font-weight="500">{{#0|name}}</text>
      </g>
      <path id="shine" d="M220.0293,151H168.492a25.48667,25.48667,0,0,1-44.984,0H70L47,173.9707V392L243,193V173.9707Z" fill="url(#linear-gradient-2)" style="mix-blend-mode: soft-light"/>
    </g>
  </g>
</svg>
