<?xml version="1.0" encoding="utf-8"?>
<!-- Generator: Adobe Illustrator 26.0.1, SVG Export Plug-In . SVG Version: 6.00 Build 0)  -->
<svg version="1.1" id="WarrantyCost_x5F_Gauge_00000157273055666089563840000010726007685598505873_"
	 xmlns="http://www.w3.org/2000/svg" xmlns:xlink="http://www.w3.org/1999/xlink" x="0px" y="0px" viewBox="0 0 540 540"
	 style="enable-background:new 0 0 540 540;" xml:space="preserve">
<style type="text/css">
	.st0{fill:#A0A0A0;}
	.st1{fill:#0293A0;}
	.st2{opacity:0.2;}
	.st3{fill:none;stroke:#000000;stroke-width:2;stroke-miterlimit:10;stroke-dasharray:3,2;}
	.st4{filter:url(#Adobe_OpacityMaskFilter);}
	.st5{fill:#FFFFFF;}
	.st6{mask:url(#bar_00000126302850554553764560000001609062169887946635_);}
	.st7{fill:#1D1D1D;}
	.st8{fill:none;stroke:#FFFFFF;stroke-width:2;stroke-miterlimit:10;stroke-dasharray:3,2;}
	.st9{font-family:'Roboto-Bold';}
	.st10{font-size:20px;}
	.st11{opacity:0.3;fill:url(#shine_00000118373696166331824740000006302462532231192199_);}
	.st12{fill:#696969;}
	.st13{font-family:'Roboto-Regular';}
	.st14{font-size:24px;}
	.st15{font-family:'Roboto-Medium';}
	.st16{font-size:26px;}
	.st17{letter-spacing:-2;}
	.st18{fill:none;}
	.st19{fill:#01929F;}
	.st20{font-size:50px;}
</style>
<g id="outline">
	<path class="st0" d="M303.83,121h-53.52c-1.47-12.2-11.79-21.5-24.31-21.5s-22.84,9.3-24.31,21.5h-53.52L122,147.17V452
		c0,4.41,3.59,8,8,8h192c4.41,0,8-3.59,8-8V147.17L303.83,121z M326,452c0,2.21-1.79,4-4,4H130c-2.21,0-4-1.79-4-4V148.83
		L149.83,125h55.7v-1.94c0.48-10.97,9.47-19.56,20.47-19.56s19.99,8.59,20.47,19.56V125h55.7L326,148.83V452z"/>
	<path class="st0" d="M237.94,122.8c-0.61-6.16-5.74-10.8-11.94-10.8s-11.33,4.64-11.94,10.82c-0.04,0.39-0.06,0.78-0.06,1.18
		c0,6.62,5.38,12,12,12s12-5.38,12-12c0-0.4-0.02-0.79-0.06-1.18L237.94,122.8z M226,132c-4.41,0-8-3.59-8-8
		c0-0.28,0.02-0.55,0.04-0.8c0.41-4.1,3.83-7.2,7.96-7.2c4.13,0,7.55,3.09,7.96,7.19c0.02,0.27,0.04,0.54,0.04,0.81
		C234,128.41,230.41,132,226,132z"/>
</g>
<g id="string">
	<g>
		<path class="st0" d="M237.87,96.77c-0.95-1.39-2.32-2.38-3.87-2.89V100h-0.05c0.27,0.6,0.3,1.28,0.05,1.91l-6.33,16.18
			c-0.5,1.29,0.13,2.74,1.42,3.24c0.3,0.12,0.61,0.17,0.91,0.17c1,0,1.94-0.6,2.33-1.59l6.33-16.18
			C239.56,101.42,239.27,98.82,237.87,96.77z"/>
		<path class="st0" d="M218,101.91c-0.25-0.63-0.22-1.31,0.05-1.91H218v-6.12c-1.55,0.51-2.92,1.5-3.87,2.89
			c-1.4,2.05-1.69,4.65-0.79,6.96l6.33,16.18c0.5,1.29,1.95,1.92,3.24,1.42c1.29-0.5,1.92-1.95,1.42-3.24L218,101.91z"/>
	</g>
	<g>
		<path class="st0" d="M316,108c-15.99,0-29-13.01-29-29v-1.5c0-17.09-13.91-31-31-31s-31,13.91-31,31v23c0,1.38-1.12,2.5-2.5,2.5
			s-2.5-1.12-2.5-2.5v-23c0-19.85,16.15-36,36-36s36,16.15,36,36V79c0,13.23,10.77,24,24,24s24-10.77,24-24c0-1.38,1.12-2.5,2.5-2.5
			s2.5,1.12,2.5,2.5C345,94.99,331.99,108,316,108z"/>
		<path class="st0" d="M316,115c-19.85,0-36-16.15-36-36v-1.5c0-13.23-10.77-24-24-24s-24,10.77-24,24v23c0,1.38-1.12,2.5-2.5,2.5
			s-2.5-1.12-2.5-2.5v-23c0-15.99,13.01-29,29-29s29,13.01,29,29V79c0,17.09,13.91,31,31,31c9.65,0,18.59-4.4,24.53-12.06
			c0.85-1.09,2.41-1.29,3.51-0.45c1.09,0.85,1.29,2.42,0.45,3.51C337.59,109.9,327.21,115,316,115z"/>
	</g>
</g>
<path id="background_color" class="st1" d="M299,136h-55.79c-3.8,5.43-10.09,9-17.21,9s-13.41-3.57-17.21-9H153l-17,17v293h180V153
	L299,136z M311,441H141V341h170V441z"/>
<g id="grid_lines_00000160188455131796659550000002358955986317617840_" class="st2">
	<g>
		<line class="st3" x1="326" y1="335" x2="125" y2="335"/>
	</g>
	<g>
		<line class="st3" x1="326" y1="290" x2="125" y2="290"/>
	</g>
	<g>
		<line class="st3" x1="326" y1="245" x2="125" y2="245"/>
	</g>
	<g>
		<line class="st3" x1="326" y1="200" x2="125" y2="200"/>
	</g>
	<g>
		<line class="st3" x1="326" y1="155" x2="125" y2="155"/>
	</g>
</g>
<defs>
	<filter id="Adobe_OpacityMaskFilter" filterUnits="userSpaceOnUse" x="206" y="154" width="40" height="182">
		<feColorMatrix  type="matrix" values="1 0 0 0 0  0 1 0 0 0  0 0 1 0 0  0 0 0 1 0"/>
	</filter>
</defs>
<mask maskUnits="userSpaceOnUse" x="206" y="154" width="40" height="182" id="bar_00000152239584437166620620000013799489473646050193_">
	<g id="mask" class="st4">
		<rect id="_x7B__x7B_sy:_x23_0_x2C_o:0.5_x3B_1_x7D__x7D_" x="206" y="154" class="st5" width="40" height="182"/>
	</g>
</mask>
<g id="bar_00000075854356459916241020000016491690230725533119_" style="mask:url(#bar_00000152239584437166620620000013799489473646050193_);">
	<rect id="bar" x="206" y="154" class="st7" width="40" height="182"/>
	<g id="grid_lines_00000135650177593299540770000011175515799606790289_" class="st2">
		<g>
			<line class="st8" x1="246" y1="335" x2="206" y2="335"/>
		</g>
		<g>
			<line class="st8" x1="246" y1="290" x2="206" y2="290"/>
		</g>
		<g>
			<line class="st8" x1="246" y1="245" x2="206" y2="245"/>
		</g>
		<g>
			<line class="st8" x1="246" y1="200" x2="206" y2="200"/>
		</g>
		<g>
			<line class="st8" x1="246" y1="155" x2="206" y2="155"/>
		</g>
	</g>
</g>
<g id="icon_00000058558955918903837100000017116212787088444583_">
	<path class="st1" d="M264.76,426h-52.58c3.81-2.29,6.45-6.33,6.78-11h56.79l4-4H260v-42c0-9.37-7.63-17-17-17h-66
		c-9.37,0-17,7.63-17,17v2h28v42c0,9.37,7.63,17,17,17h55.76L264.76,426z M189.83,367h-25.67c0.96-6.22,6.36-11,12.85-11
		C183.49,356,188.86,360.78,189.83,367L189.83,367z M192,413v-44c0-5.56-3.05-10.41-7.55-13H243c7.17,0,13,5.83,13,13v44h-39v1
		c0,6.62-5.38,12-12,12C197.83,426,192,420.17,192,413z"/>
	<path id="seal" class="st1" d="M244.51,400.74l-1.85-4.59l4.19-2.63l-4.19-2.63l1.85-4.59l-4.94,0.34l-1.2-4.81l-3.8,3.18
		l-3.8-3.18l-1.2,4.8l-4.94-0.34l1.85,4.59l-4.19,2.63l4.19,2.63l-1.85,4.59l3.96-0.27l-4.8,8.31l3.97-0.48l1.57,3.68l5.23-9.06
		l5.23,9.06l1.57-3.68l3.97,0.48l-4.8-8.31L244.51,400.74z M226.06,393.52l2.91-1.82l-1.28-3.18l3.42,0.24l0.83-3.33l2.63,2.21
		l2.63-2.21l0.83,3.33l3.43-0.24l-1.28,3.18l2.91,1.82l-2.91,1.82l1.28,3.18l-3.42-0.24l-0.83,3.33l-2.63-2.21l-2.63,2.21
		l-0.83-3.33l-3.43,0.24l1.28-3.18L226.06,393.52z"/>
	<g id="lines">
		<path class="st1" d="M218,402h-13c-0.55,0-1-0.45-1-1s0.45-1,1-1h13c0.55,0,1,0.45,1,1S218.55,402,218,402z"/>
		<path class="st1" d="M218.09,394H205c-0.55,0-1-0.45-1-1s0.45-1,1-1h13.09c0.55,0,1,0.45,1,1S218.64,394,218.09,394z"/>
		<path class="st1" d="M218,386h-13c-0.55,0-1-0.45-1-1s0.45-1,1-1h13c0.55,0,1,0.45,1,1S218.55,386,218,386z"/>
		<path class="st1" d="M243,378h-38c-0.55,0-1-0.45-1-1s0.45-1,1-1h38c0.55,0,1,0.45,1,1S243.55,378,243,378z"/>
		<path class="st1" d="M243,370h-38c-0.55,0-1-0.45-1-1s0.45-1,1-1h38c0.55,0,1,0.45,1,1S243.55,370,243,370z"/>
	</g>
</g>
<g id="_x24__corner">
	<g>
		<polygon class="st1" points="308,388 258,438 308,438 		"/>
	</g>
	<g>
		<text transform="matrix(1 0 0 1 288.2627 429.5801)" class="st5 st9 st10">$</text>
	</g>
</g>
<g id="tick_lines_00000011725720712915760610000017550284979597382078_">
	<g>
		<g>
			<path class="st0" d="M125,336h-12c-0.55,0-1-0.45-1-1s0.45-1,1-1h12c0.55,0,1,0.45,1,1S125.55,336,125,336z"/>
		</g>
	</g>
	<g>
		<g>
			<path class="st0" d="M125,291h-12c-0.55,0-1-0.45-1-1s0.45-1,1-1h12c0.55,0,1,0.45,1,1S125.55,291,125,291z"/>
		</g>
	</g>
	<g>
		<g>
			<path class="st0" d="M125,246h-12c-0.55,0-1-0.45-1-1s0.45-1,1-1h12c0.55,0,1,0.45,1,1S125.55,246,125,246z"/>
		</g>
	</g>
	<g>
		<g>
			<path class="st0" d="M125,201h-12c-0.55,0-1-0.45-1-1s0.45-1,1-1h12c0.55,0,1,0.45,1,1S125.55,201,125,201z"/>
		</g>
	</g>
	<g>
		<g>
			<path class="st0" d="M125,156h-12c-0.55,0-1-0.45-1-1s0.45-1,1-1h12c0.55,0,1,0.45,1,1S125.55,156,125,156z"/>
		</g>
	</g>
</g>
<linearGradient id="shine_00000004525417737483736960000002413277497279921589_" gradientUnits="userSpaceOnUse" x1="153.4001" y1="218.6193" x2="234.8404" y2="291.2784">
	<stop  offset="0" style="stop-color:#FFFFFF"/>
	<stop  offset="1" style="stop-color:#FFFFFF;stop-opacity:0.3"/>
</linearGradient>
<path id="shine" style="opacity:0.3;fill:url(#shine_00000004525417737483736960000002413277497279921589_);" d="M299,136h-55.79
	c-3.8,5.43-10.09,9-17.21,9s-13.41-3.57-17.21-9H153l-17,17v262.62L316,192v-39L299,136z"/>
<text transform="matrix(1 0 0 1 46.0469 163.5313)"><tspan x="0" y="0" class="st12 st13 st14">$40M</tspan><tspan x="0" y="45" class="st12 st13 st14">$30M</tspan><tspan x="0" y="90" class="st12 st13 st14">$20M</tspan><tspan x="0" y="135" class="st12 st13 st14">$10M</tspan><tspan x="13.48" y="180" class="st12 st13 st14">$0M</tspan></text>
<g>
	<text transform="matrix(1 0 0 1 110.8314 496.9539)"><tspan x="0" y="0" class="st7 st15 st16 st17">T</tspan><tspan x="13.14" y="0" class="st7 st15 st16">otal </tspan><tspan x="63.77" y="0" class="st7 st15 st16">W</tspan><tspan x="86.23" y="0" class="st7 st15 st16">ar</tspan><tspan x="109.43" y="0" class="st7 st15 st16">r</tspan><tspan x="118.19" y="0" class="st7 st15 st16">anty Cost</tspan></text>
</g>
<g id="_x7B__x7B_py:_x23_0_x2C_g:valuePath_x2C_o:0_x3B_0.5_x7D__x7D_">
	<rect id="spacer" x="316" y="308" class="st18" width="190" height="54"/>
	<g>
		<text transform="matrix(1 0 0 1 339.6395 350.4998)" class="st19 st9 st20">{{#0|c}}</text>
	</g>
	<polygon class="st5" points="334.53,322.78 331.59,324.35 316.59,332.35 311.29,335.18 313.1,336.03 316.73,337.72 331.73,344.72 
		334.58,346.05 336,346.71 336,322 	"/>
	<g>
		<polygon class="st7" points="333,342 318,335 333,327 		"/>
	</g>
</g>
<line id="_x7B__x7B_valuePath_x7D__x7D_" class="st18" x1="311" y1="336" x2="311" y2="154"/>
</svg>
